<svg xmlns="http://www.w3.org/2000/svg" viewBox="0 0 888 600">
  <path fill="#D8DEE9" d="M332.607 304.823l5.767-5.7 9.328 8.884 49.993 49.992c1.57 1.57 1.627 4.059.128 5.557-1.499 1.5-3.987 1.441-5.557-.128l-49.993-49.993-9.666-8.612z"/>
  <path fill="#EBCB8B" d="M313.588 309.935l7.673-12.242a.961.961 0 00.095-.822l-4.577-13.342c-.26-.758.467-1.482 1.228-1.224l13.396 4.56a.968.968 0 00.825-.096l9.834-6.114v-.001l2.097-1.309a.95.95 0 011.451.881l-1.134 14.502a.951.951 0 00.432.873l11.51 7.437a.924.924 0 01.365.443h.001l.002.007c.013.032.02.066.029.101.007.028.018.056.022.085v.001a.946.946 0 01-.661 1.072l-12.582 3.798a.955.955 0 00-.636.637l-3.799 12.582a.95.95 0 01-1.709.24l-1.747-2.703.002-.007-5.578-8.6a.967.967 0 00-.888-.438l-14.757 1.149a.963.963 0 01-.894-1.47z"/>
  <g fill="#4C566A">
    <path d="M312.112 309.257a2.457 2.457 0 00-.016 2.59 2.461 2.461 0 002.305 1.183l14.438-1.13 7.393 11.442a2.443 2.443 0 002.065 1.131 2.452 2.452 0 002.377-1.756l2.03-6.725 10.102 10.102a1.5 1.5 0 002.126 0 1.503 1.503 0 000-2.126l-11.243-11.242.766-2.536 2.536-.766 36.82 36.819c.293.294.679.44 1.063.44a1.503 1.503 0 001.063-2.566l-35.68-35.68 6.724-2.029a2.446 2.446 0 001.732-2.021 2.447 2.447 0 00-1.106-2.421l-11.442-7.393 1.129-14.438a2.463 2.463 0 00-1.182-2.307 2.46 2.46 0 00-2.59.018l-12.075 7.538-3.375-1.153a1.503 1.503 0 00-1.909.938c-.269.785.15 1.64.937 1.908l3.615 1.235a2.465 2.465 0 002.107-.241l11.391-7.111-1.072 13.697a2.469 2.469 0 001.123 2.268l10.61 7.02-11.565 3.448a2.464 2.464 0 00-1.651 1.652l-3.53 11.692-6.937-10.738a2.46 2.46 0 00-2.269-1.123l-13.697 1.072 7.111-11.391a2.459 2.459 0 00.242-2.107l-4.224-12.361 2.669.912c.786.269 1.64-.15 1.909-.938a1.501 1.501 0 00-.937-1.908l-3.703-1.266a2.455 2.455 0 00-2.546.592 2.455 2.455 0 00-.591 2.546l4.495 13.154-7.538 12.076z"/>
    <path d="M359.47 328.505a1.505 1.505 0 00-2.126 2.127l33.859 33.859a5.599 5.599 0 003.959 1.653c1.36 0 2.705-.507 3.723-1.525 2.083-2.083 2.026-5.529-.128-7.683l-8.282-8.281a1.503 1.503 0 00-2.126 2.126l8.282 8.282c.981.98 1.039 2.52.128 3.43-.911.91-2.449.852-3.43-.129l-33.859-33.859z"/>
  </g>
  <path fill="#EBCB8B" d="M366.078 285.831a.887.887 0 00-1.208.077l-4.431 4.665a.89.89 0 00.362 1.455l5.925 1.982a.892.892 0 001.142-.613c.895-3.308.298-5.83-1.79-7.566zm-36.732-19.406a.889.889 0 00-.266 1.182l3.234 5.563a.887.887 0 001.497.061l3.567-5.129a.893.893 0 00-.269-1.269c-2.923-1.789-5.51-1.924-7.763-.408zm-9.313 64.32l4.666-4.431a.889.889 0 011.454.362l1.983 5.925a.892.892 0 01-.614 1.142c-3.308.895-5.83.299-7.565-1.789a.887.887 0 01.076-1.209zm-18.302-35.789l5.563 3.233a.888.888 0 01.061 1.497l-5.13 3.567a.89.89 0 01-1.268-.269c-1.788-2.924-1.923-5.512-.407-7.764a.889.889 0 011.181-.264z"/>
  <path fill="#4C566A" d="M368.138 295.276a2.413 2.413 0 001.182-1.486c.728-2.689.922-6.453-2.28-9.115a2.395 2.395 0 00-3.26.197l-4.431 4.666a2.38 2.38 0 00-.586 2.226 2.38 2.38 0 001.562 1.69l5.925 1.982a2.386 2.386 0 001.888-.16zm-1.566-2.903l-4.377-1.465 3.347-3.524c1.455 1.523 1.366 3.455 1.03 4.989zm-27.96-23.415a2.396 2.396 0 00-.718-3.408c-2.376-1.453-5.934-2.697-9.388-.371a2.396 2.396 0 00-.726 3.184l3.234 5.563a2.38 2.38 0 002.07 1.19 2.38 2.38 0 001.962-1.026l3.566-5.132zm-2.849-1.17l-2.635 3.79-2.443-4.202c1.871-.969 3.7-.34 5.078.412zm18.283 2.272a1.504 1.504 0 10-2.339-1.89l-2.739 3.389a1.503 1.503 0 102.338 1.89l2.74-3.389zm-35.048 59.595a2.394 2.394 0 00-.197 3.26c1.119 1.346 2.996 2.729 5.979 2.729.934 0 1.975-.135 3.136-.449a2.406 2.406 0 001.487-1.182c.31-.578.368-1.267.16-1.889l-1.983-5.924a2.383 2.383 0 00-1.69-1.563 2.386 2.386 0 00-2.226.586l-4.666 4.432zm2.51 1.762l3.524-3.348 1.465 4.378c-1.533.336-3.464.425-4.989-1.03zm-22.205-37.035c-1.284 1.906-2.262 5.083.371 9.388a2.403 2.403 0 002.041 1.146c.485 0 .966-.147 1.369-.428l5.129-3.566c.674-.469 1.058-1.239 1.024-2.061s-.477-1.558-1.188-1.971l-5.563-3.234a2.393 2.393 0 00-3.183.726zm2.197 2.179l4.202 2.442-3.79 2.636c-.752-1.379-1.38-3.207-.412-5.078zm.57 23.137a1.502 1.502 0 002.114.224l3.388-2.739a1.504 1.504 0 00-1.89-2.338l-3.389 2.738a1.503 1.503 0 00-.223 2.115zm3.87-45.189l3.759 3.517a1.5 1.5 0 001.027.405 1.504 1.504 0 001.028-2.602l-3.759-3.517a1.504 1.504 0 00-2.055 2.197z"/>
  <path fill="#EBCB8B" stroke="#4C566A" stroke-width="6" stroke-linecap="round" stroke-linejoin="round" stroke-miterlimit="1.5" d="M396.468 352.151s21.483-5.527 31.277 3.59c9.792 9.117 4.071 19.182-5.477 15.551-9.548-3.634-18.837-6.219-26.108-2.428-7.271 3.791-13.282-13.356.308-16.713h0z"/>
  <path d="M468.656 209.06s10.385-10.82 14.281 15.58m21.639-18.178s-9.953-10.387-13.416 16.879m-13.709-25.637s11.688-7.45 9.531 22.675" fill="none" stroke="#88C0D0" stroke-width="4" stroke-linecap="round" stroke-linejoin="round" stroke-miterlimit="1.5"/>
  <path fill="#EBCB8B" stroke="#4C566A" stroke-width="6" stroke-linecap="round" stroke-linejoin="round" stroke-miterlimit="1.5" d="M473.832 482.188s-9.672-19.961-2.678-31.367c6.994-11.404 17.992-7.789 16.326 2.287-1.668 10.08-2.363 19.696 2.797 26.071 5.157 6.378-10.461 15.665-16.445 3.009zm88.897-46.299s-19.381-10.791-20.201-24.145c-.82-13.355 10.26-16.709 14.68-7.5 4.422 9.207 9.373 17.482 17.258 19.741 7.882 2.261.425 18.831-11.737 11.904z"/>
  <path fill="#88C0D0" d="M559.479 275.745c.408-2.447 5.416-6.191 7.498-7.039 25.324-10.314 16.447 18.725 1.703 17.575"/>
  <path fill="#4C566A" d="M576.283 263.506l.111.002.113.003.109.002.111.002.113.004.109.006.109.007.109.006.109.007.107.008.109.011.107.008.105.013.107.011.105.013.107.014.104.013.105.017.105.015.104.017.102.02.105.019.102.019.102.021.102.021.102.021.1.023.102.024.1.024.098.025.102.027.098.027.098.027.096.028.098.031.098.031.094.031.094.034.1.033.092.035.092.033.094.037.096.038.09.039.092.038.09.039.09.042.092.044.09.041.086.044.088.044.086.046.09.048.086.046.084.048.086.052.084.05.08.049.086.054.08.052.08.055.084.057.074.052.08.056.08.059.078.059.074.059.078.061.072.06.076.061.072.063.072.063.07.063.072.064.068.065.068.066.068.066.066.066.068.066.064.069.064.071.064.068.063.07.063.073.061.071.061.072.059.075.057.073.055.07.057.075.059.081.049.071.051.073.059.08.049.08.049.072.051.08.047.078.049.082.047.079.047.081.041.077.043.081.045.081.041.083.041.084.039.077.039.085.035.077.037.086.035.083.033.079.039.092.031.081.031.079.033.092.029.081.029.082.031.094.023.081.027.079.029.096.023.081.023.081.023.09.021.081.023.09.021.09.018.081.021.09.016.083.02.09.016.089.016.078.016.089.016.092.012.083.016.09.01.086.014.089.01.086.008.083.01.092.01.083.008.092.006.092.006.085.008.084.004.085.004.086.004.091.002.092.002.086.002.086v.348l-.002.085-.002.092-.004.085-.004.092-.004.086-.004.088-.008.085-.004.085-.008.092-.006.086-.01.087-.008.086-.01.091-.008.088-.012.086-.01.085-.012.088-.012.085-.012.086-.016.094-.014.085-.014.079-.014.094-.018.086-.014.085-.02.094-.014.079-.018.088-.018.085-.02.086-.02.094-.02.085-.02.081-.02.086-.021.085-.021.088-.023.092-.023.085-.021.081-.023.086-.023.088-.025.085-.027.092-.025.081-.023.079-.029.092-.025.085-.027.088-.029.086-.027.078-.029.088-.029.086-.031.085-.031.085-.029.082-.031.085-.033.09-.031.081-.031.079-.035.092-.035.085-.031.08-.033.081-.035.085-.039.09-.037.083-.035.081-.035.08-.037.085-.037.083-.039.082-.039.083-.039.085-.039.084-.043.085-.039.079-.039.079-.043.084-.041.083-.041.079-.045.083-.043.084-.041.079-.047.083-.041.079-.047.083-.047.084-.043.072-.045.084-.049.081-.047.083-.051.082-.043.074-.049.082-.049.081-.047.075-.049.081-.053.081-.053.081-.049.077-.049.075-.055.081-.049.077-.053.077-.055.079-.051.077-.053.075-.057.079-.057.079-.053.077-.053.075-.057.075-.053.074-.059.077-.059.079-.057.075-.055.071-.061.076-.061.078-.057.072-.053.071-.059.073-.059.072-.063.075-.061.073-.061.072-.063.073-.061.071-.064.074-.063.073-.063.071-.063.07-.066.075-.064.068-.061.069-.066.072-.063.074-.064.07-.066.069-.068.068-.066.068-.066.069-.07.071-.066.068-.066.064-.07.068-.07.069-.07.066-.066.064-.072.067-.072.068-.07.064-.072.066-.07.063-.072.064-.074.067-.074.064-.07.061-.074.063-.074.064-.074.063-.08.064-.072.061-.072.058-.08.065-.076.06-.076.059-.076.061-.078.061-.078.059-.08.061-.078.058-.078.057-.078.059-.082.056-.076.057-.086.059-.082.056-.078.055-.082.056-.08.053-.084.054-.084.054-.08.053-.088.057-.084.052-.08.05-.086.052-.086.05-.086.053-.086.05-.086.048-.088.05-.086.048-.088.049-.086.047-.088.049-.088.045-.088.047-.092.045-.086.044-.09.046-.092.044-.09.044-.092.043-.092.042-.09.042-.092.041-.094.04-.092.04-.094.039-.092.04-.094.037-.094.04-.096.037-.094.035-.094.035-.096.036-.096.035-.096.033-.096.033-.098.034-.096.033-.098.031-.096.031-.102.029-.098.031-.098.026-.098.029-.1.027-.1.026-.102.027-.098.025-.1.025-.1.024-.102.022-.104.023-.1.023-.102.021-.102.021-.104.021-.104.019-.102.019-.102.017-.105.019-.104.017-.104.015-.104.015-.104.015-.105.013-.105.013-.105.012-.105.011-.105.011-.105.01-.105.009-.105.009-.109.006-.105.006-.105.007-.107.004-.107.004-.109.002-.105.003-.109.002h-.216l-.107-.002-.107-.003-.109-.002-.107-.004-.111-.007-.107-.004-.111-.006-.107-.009-.1-.006-.166-.017-.164-.027-.162-.035-.164-.044-.158-.054-.154-.063-.15-.071-.146-.079-.145-.088-.137-.096-.131-.102-.125-.11-.121-.117-.113-.125-.104-.129-.098-.136-.092-.14-.082-.146-.074-.15-.064-.154-.059-.156-.049-.16-.037-.162-.031-.165-.018-.166-.014-.167-.002-.167.008-.166.018-.167.027-.164.035-.165.043-.16.055-.159.063-.153.07-.152.08-.146.088-.145.096-.137.102-.132.111-.125.115-.12.123-.113.131-.104.137-.101.139-.089.146-.082.15-.074.154-.065.156-.058.16-.049.162-.037.164-.031.168-.019.166-.013.166-.002.168.008.074.007.063.004.063.002.063.005.063.002.063.002.063.002.063.002h.25l.061-.002.063-.002.061-.002.063-.002.061-.002.061-.005.063-.004.061-.004.059-.007.061-.004.061-.006.061-.007.061-.006.061-.009.061-.006.059-.009.063-.008.059-.011.059-.008.061-.011.061-.011.059-.01.059-.011.061-.013.059-.013.059-.013.061-.012.059-.013.059-.015.061-.015.057-.015.059-.015.061-.017.057-.015.059-.017.059-.017.061-.019.059-.017.055-.017.059-.02.059-.021.059-.019.059-.019.057-.021.059-.021.057-.021.057-.021.059-.021.059-.022.057-.023.057-.022.057-.023.057-.024.057-.023.059-.024.057-.025.053-.025.061-.026.057-.025.055-.027.059-.026.053-.027.057-.027.057-.029.057-.027.055-.029.055-.028.057-.031.057-.029.055-.031.057-.031.053-.031.057-.031.055-.031.055-.033.051-.031.055-.033.059-.036.055-.033.049-.031.057-.035.053-.035.053-.035.055-.036.055-.035.055-.038.051-.037.051-.033.055-.039.051-.038.053-.037.055-.04.051-.037.053-.04.053-.039.049-.038.053-.039.053-.044.051-.04.049-.037.051-.044.055-.044.049-.039.049-.042.051-.042.047-.043.053-.044.051-.044.045-.041.051-.045.051-.045.049-.046.049-.044.045-.042.049-.046.051-.048.049-.046.043-.043.049-.049.049-.047.047-.049.043-.043.049-.049.045-.047.047-.049.045-.048.047-.05.045-.048.043-.046.049-.054.043-.048.043-.049.045-.05.045-.05.043-.052.041-.048.045-.051.043-.052.041-.052.045-.05.039-.05.041-.053.045-.052.041-.055.043-.052.037-.05.039-.05.043-.057.041-.055.039-.05.037-.052.039-.055.041-.054.039-.054.039-.055.035-.052.035-.052.041-.057.037-.055.035-.052.037-.056.037-.057.033-.053.039-.056.035-.057.033-.054.033-.053.033-.054.037-.061.033-.054.031-.053.037-.063.031-.052.031-.054.031-.055.031-.055.037-.063.029-.054.031-.054.031-.059.027-.055.031-.058.029-.055.027-.054.031-.059.027-.055.027-.054.029-.061.029-.058.027-.055.027-.057.023-.054.025-.054.027-.061.025-.055.025-.054.027-.061.023-.059.025-.056.021-.051.023-.054.021-.059.025-.061.023-.054.018-.051.023-.06.023-.061.018-.048.021-.055.021-.061.02-.054.02-.054.02-.055.018-.055.02-.06.02-.055.016-.054.02-.055.014-.048.018-.06.018-.059.016-.049.014-.054.016-.054.014-.053.018-.059.014-.054.014-.048.012-.052.012-.052.014-.055.014-.059.012-.052.01-.046.012-.053.012-.052.01-.052.01-.057.01-.045.01-.053.008-.05.008-.046.01-.057.008-.05.006-.044.008-.05.008-.05.006-.05.006-.05.006-.051.006-.048.004-.042.006-.049.004-.049.004-.048.004-.042.002-.047.004-.049.002-.045.002-.049.002-.039.002-.046v-.085l.004-.047v-.129l-.004-.043v-.044l-.002-.038-.002-.035-.002-.044-.002-.044-.002-.041-.002-.042-.004-.035-.002-.036-.004-.041-.004-.033-.006-.04-.004-.042-.006-.033-.004-.039-.004-.031-.006-.039-.008-.031-.006-.031-.008-.045-.004-.03-.006-.031-.01-.036-.006-.029-.008-.037-.008-.029-.006-.027-.01-.035-.008-.027-.01-.035-.01-.033-.006-.021-.01-.033-.01-.031-.01-.021-.01-.031-.01-.031-.01-.019-.01-.031-.012-.031-.008-.017-.014-.029-.008-.024-.012-.023-.014-.027-.01-.022-.014-.029-.01-.021-.014-.023-.01-.021-.01-.021-.018-.027-.01-.021-.012-.019-.014-.021-.01-.021-.014-.019-.016-.025-.014-.019-.01-.015-.016-.023-.018-.024-.01-.013-.014-.019-.018-.023-.014-.019-.014-.017-.016-.019-.014-.017-.018-.019-.014-.018-.018-.017-.014-.019-.018-.017-.016-.017-.018-.017-.016-.017-.02-.017-.016-.017-.02-.017-.02-.017-.018-.018-.02-.014-.018-.018-.021-.016-.021-.018-.02-.014-.021-.018-.02-.012-.02-.018-.027-.018-.02-.014-.025-.016-.021-.016-.023-.014-.027-.018-.027-.014-.053.029-.025-.015-.027-.015-.025-.015-.029-.015-.029-.015-.029-.015-.031-.015-.029-.015-.031-.015-.033-.014-.031-.016-.035-.012-.031-.015-.033-.013-.037-.015-.037-.013-.035-.012-.039-.014-.039-.014-.037-.013-.041-.011-.041-.012-.041-.014-.043-.012-.043-.011-.043-.013-.045-.01-.043-.011-.049-.011-.047-.01-.049-.011-.047-.011-.051-.008-.051-.009-.051-.011-.053-.008-.055-.008-.051-.007-.055-.009-.057-.006-.059-.006-.055-.007-.059-.006-.061-.007-.059-.004-.063-.006-.061-.004-.064-.002-.063-.005-.064-.004-.066-.002-.066-.002h-.068l-.068-.003h-.206l-.074.003h-.072l-.072.002-.076.004-.074.002-.078.005-.076.004-.078.004-.08.006-.08.007-.08.006-.082.007-.084.008-.082.009-.086.008-.084.011-.088.01-.086.011-.088.013-.088.011-.092.015-.092.012-.092.015-.092.015-.094.015-.094.017-.096.017-.096.019-.098.018-.098.019-.098.021-.1.021-.104.021-.1.021-.102.023-.104.022-.105.025-.105.024-.105.025-.107.027-.107.024-.109.029-.109.029-.109.029-.113.029-.111.031-.113.031-.113.033-.115.033-.117.033-.117.035-.115.036-.119.035-.119.037-.121.038-.121.039-.123.04-.121.041-.123.042-.125.042-.125.043-.125.044-.129.044-.131.046-.127.046-.129.048-.131.048-.131.05-.133.05-.135.051-.133.052-.135.052-.139.055-.135.054-.139.057-.135.054-.027.011-.02.011-.023.008-.029.013-.031.015-.029.015-.037.019-.035.017-.039.019-.039.021-.039.019-.041.022-.047.025-.045.023-.047.026-.049.027-.049.027-.051.028-.053.029-.049.029-.057.033-.051.031-.113.069-.117.07-.115.075-.121.077-.123.081-.125.082-.127.087-.127.088-.129.089-.133.096-.131.094-.131.099-.133.098-.135.103-.135.104-.063.051-.064.052-.066.052-.066.055-.066.058-.066.054-.064.055-.068.054-.064.055-.063.052-.064.055-.063.056-.064.055-.061.054-.064.057-.063.054-.061.057-.061.054-.057.055-.061.054-.063.059-.057.054-.059.055-.059.057-.057.056-.053.052-.055.055-.057.057-.053.052-.051.056-.053.053-.051.054-.049.052-.051.055-.045.05-.047.05-.045.055-.047.052-.043.05-.041.049-.041.047-.039.049-.037.045-.037.049-.041.05-.033.044-.031.041-.033.046-.029.04-.029.039-.031.046-.027.038-.02.035-.025.035-.021.035-.02.031-.018.029-.018.033-.016.027-.014.027-.016.025-.008.019-.01.022-.01.015-.004.013-.008.019-.002.007-.025.125-.043.162-.051.158-.061.156-.068.152-.078.147-.084.144-.094.141-.104.133-.107.127-.115.121-.123.114-.127.106-.133.1-.139.094-.145.084-.15.076-.152.067-.156.058-.16.053-.162.039-.162.033-.168.023-.166.013-.166.004-.168-.006-.166-.015-.164-.023-.164-.033-.164-.041-.158-.053-.156-.061-.152-.068-.146-.077-.145-.085-.139-.094-.135-.101-.127-.108-.121-.116-.113-.121-.107-.129-.1-.134-.094-.14-.084-.144-.076-.148-.066-.153-.059-.156-.051-.159-.041-.162-.033-.164-.023-.165-.012-.167-.004-.168.006-.167.014-.167.023-.164.008-.042.014-.071.014-.068.016-.074.029-.123.033-.13.035-.125.037-.118.039-.117.043-.121.045-.12.047-.112.043-.106.051-.11.049-.108.051-.104.055-.106.053-.102.055-.103.057-.1.055-.096.057-.098.061-.099.061-.094.061-.094.063-.096.064-.094.059-.085.064-.092.066-.092.064-.088.07-.092.068-.085.064-.085.066-.084.07-.088.072-.085.07-.085.072-.086.072-.083.072-.081.07-.08.074-.083.076-.083.074-.082.076-.078.074-.08.076-.081.076-.077.078-.079.078-.079.076-.077.082-.079.078-.077.08-.075.08-.076.082-.078.078-.07.078-.075.086-.077.082-.074.08-.073.082-.073.08-.07.086-.075.084-.071.082-.07.084-.071.084-.07.086-.073.082-.068.084-.066.084-.069.084-.069.084-.068.084-.064.084-.068.088-.069.166-.129.17-.127.168-.127.172-.125.168-.123.166-.119.168-.116.166-.117.166-.112.166-.11.164-.106.162-.104.162-.104.162-.098.156-.096.08-.049.078-.045.082-.049.078-.043.076-.046.08-.044.074-.042.08-.044.076-.041.076-.04.076-.039.076-.042.078-.037.076-.04.078-.037.072-.036.08-.035.074-.035.078-.035.078-.033.08-.033.072-.031.16-.065.158-.063.156-.063.154-.06.154-.061.154-.061.154-.059.152-.057.152-.058.15-.055.148-.056.152-.055.148-.052.148-.052.148-.053.148-.05.146-.05.145-.051.146-.047.145-.047.143-.047.145-.047.145-.043.141-.044.143-.044.141-.041.141-.04.139-.042.141-.039.139-.04.135-.037.139-.038.137-.035.139-.035.133-.035.137-.033.135-.034.133-.031.133-.031.133-.031.133-.028.131-.029.131-.029.131-.027.129-.025.129-.026.131-.025.127-.022.127-.023.127-.022.127-.023.127-.019.125-.021.125-.019.125-.02.123-.019.123-.017.123-.015.123-.017.119-.015.123-.013.119-.012.121-.013.121-.013.119-.011.117-.008.119-.011.117-.006.117-.009.119-.006.113-.007.117-.004.115-.004.113-.002.115-.005h.115l.113-.002h.125v-.012z"/>
  <path fill="#88C0D0" d="M422.276 256.667c-2.323.87-4.829-.594-6.604-1.974-21.594-16.772 7.919-23.493 14.294-10.149"/>
  <path fill="#4C566A" d="M417.437 234.485h.092l.094.002.091.002.094.002.094.002.092.002.094.005.094.004.091.004.094.005.094.006.094.006.094.007.092.006.094.007.094.008.094.008.094.009.094.009.094.008.094.011.094.011.094.01.094.013.094.011.094.012.094.013.094.013.094.015.094.013.094.015.094.015.094.017.094.015.094.017.094.017.094.017.094.019.094.017.092.019.094.02.094.021.094.019.094.021.094.021.094.021.092.023.094.022.094.021.091.023.096.025.091.024.092.022.094.027.094.025.091.027.092.024.094.027.094.029.092.026.094.029.09.029.094.029.092.029.091.031.091.031.092.031.092.033.092.031.092.033.092.033.089.035.091.034.09.035.092.035.092.038.089.035.089.037.09.038.092.037.089.04.091.039.088.04.09.039.089.042.087.039.09.044.089.042.087.044.09.044.089.043.083.044.09.046.087.046.09.046.087.048.085.046.085.048.085.048.09.05.083.048.085.051.087.052.085.052.083.051.085.052.084.052.085.055.083.054.083.054.085.057.082.055.083.056.085.059.082.056.079.057.083.061.081.059.081.061.08.058.081.061.082.063.079.063.081.064.077.061.079.064.079.065.077.064.079.066.075.064.077.066.077.066.077.069.077.071.075.066.073.068.075.07.075.071.072.071.073.072.075.073.073.073.071.074.071.073.071.075.071.075.07.077.071.076.066.076.071.08.069.078.064.076.071.084.067.079.066.081.064.081.064.081.065.084.065.081.064.087.063.084.063.086.063.083.063.089.06.086.061.088.06.089.059.088.061.092.056.087.056.09.059.092.054.09.059.094.054.094.054.092.054.096.052.092.052.096.052.098.05.094.052.096.05.1.05.099.045.096.042.083.066.148.059.149.05.154.042.156.033.156.025.161.014.16.008.162-.002.16-.011.16-.019.161-.027.16-.035.156-.046.154-.052.154-.061.147-.069.146-.077.144-.086.138-.092.131-.098.127-.106.123-.112.117-.117.109-.125.103-.129.099-.135.087-.138.083-.144.075-.148.064-.15.059-.152.052-.156.042-.158.033-.161.022-.161.018-.16.008-.16-.002-.163-.01-.16-.02-.158-.027-.158-.037-.154-.044-.152-.052-.15-.063-.146-.068-.142-.078-.138-.083-.133-.091-.127-.101-.123-.104-.115-.112-.111-.118-.104-.123-.096-.129-.089-.136-.082-.14-.075-.142-.036-.071-.029-.061-.027-.056-.027-.055-.029-.054-.031-.059-.029-.055-.029-.052-.031-.056-.031-.055-.031-.054-.031-.052-.031-.053-.034-.055-.031-.049-.034-.053-.033-.055-.033-.049-.035-.053-.031-.048-.038-.05-.036-.053-.033-.047-.035-.051-.038-.05-.037-.048-.033-.046-.038-.05-.038-.048-.04-.048-.038-.049-.04-.045-.038-.049-.037-.043-.042-.048-.04-.046-.038-.042-.044-.048-.039-.046-.042-.044-.042-.043-.04-.044-.046-.046-.042-.044-.041-.042-.042-.041-.044-.044-.046-.044-.042-.041-.043-.04-.048-.044-.046-.041-.044-.04-.044-.042-.046-.037-.048-.042-.048-.042-.046-.037-.048-.041-.046-.038-.048-.04-.05-.037-.046-.037-.05-.04-.048-.035-.05-.038-.05-.037-.052-.037-.05-.038-.048-.033-.055-.04-.052-.035-.048-.033-.052-.035-.052-.035-.052-.033-.054-.036-.052-.033-.052-.033-.055-.033-.054-.033-.057-.034-.052-.033-.052-.029-.056-.033-.059-.033-.052-.029-.054-.031-.058-.031-.057-.031-.056-.029-.056-.031-.057-.028-.056-.029-.061-.029-.057-.029-.056-.026-.058-.029-.059-.027-.056-.027-.06-.027-.059-.027-.061-.026-.061-.027-.058-.024-.058-.025-.061-.027-.061-.025-.061-.024-.061-.024-.058-.023-.063-.023-.06-.024-.063-.022-.061-.023-.063-.023-.061-.022-.063-.021-.063-.023-.061-.021-.063-.021-.063-.021-.063-.021-.063-.019-.064-.021-.063-.021-.063-.019-.063-.02-.064-.018-.064-.02-.063-.017-.065-.017-.063-.019-.064-.017-.065-.017-.063-.017-.066-.018-.064-.014-.063-.018-.066-.014-.063-.015-.067-.015-.065-.015-.064-.013-.064-.015-.064-.013-.064-.012-.067-.013-.065-.013-.064-.013-.064-.013-.066-.01-.064-.011-.065-.011-.067-.01-.064-.011-.066-.011-.064-.008-.064-.011-.067-.009-.064-.008-.066-.008-.064-.007-.067-.009-.064-.006-.067-.008-.064-.007-.064-.006-.066-.007-.065-.004-.064-.006-.067-.004-.064-.005-.064-.006-.064-.002-.067-.005-.065-.004-.064-.002-.064-.004-.064-.002-.064-.002-.064-.002h-.065l-.064-.003h-.065l-.064-.002h-.191l-.064.002h-.063l-.064.003-.063.002h-.065l-.063.002-.063.004-.063.002-.063.002-.063.004-.063.005-.063.004-.063.004-.063.005-.06.004-.063.006-.061.004-.063.007-.061.006-.061.007-.061.006-.061.008-.06.007-.06.009-.061.006-.059.008-.061.009-.058.009-.058.008-.059.011-.059.008-.058.011-.058.01-.057.009-.058.013-.058.01-.055.011-.058.011-.056.013-.057.013-.054.01-.057.013-.054.013-.057.012-.054.016-.055.012-.054.013-.055.015-.052.015-.052.013-.053.015-.052.015-.052.017-.052.015-.052.014-.05.018-.05.014-.05.018-.05.017-.05.017-.032.007-.05.019-.05.017-.046.017-.045.017-.048.019-.048.02-.046.016-.048.02-.043.019-.044.017-.046.021-.046.018-.042.02-.041.019-.046.013-.044.021-.04.019-.043.021-.042.019-.04.021-.042.021-.04.021-.037.019-.04.021-.039.021-.038.021-.037.021-.038.021-.036.021-.035.021-.035.022-.038.023-.035.021-.035.021-.033.022-.031.019-.031.023-.038.022-.031.022-.029.021-.031.021-.031.022-.031.023-.027.021-.029.022-.029.022-.025.02-.033.026-.032.026-.022.021-.025.021-.022.018-.027.025-.027.023-.024.022-.023.021-.021.021-.025.025-.021.021-.025.022-.023.025-.017.017-.021.021-.021.025-.022.025-.019.021-.014.017-.021.025-.021.024-.015.017-.017.021-.019.026-.017.021-.013.018-.017.021-.017.026-.017.021-.015.021-.015.023-.011.017-.013.021-.017.027-.01.017-.011.017-.015.027-.013.022-.01.017-.012.023-.011.022-.008.017-.012.023-.011.024-.008.018-.01.022-.009.019-.006.019-.011.023-.004.026-.011.025-.006.019-.007.019-.006.021-.009.024-.008.027-.004.013-.006.021-.006.027-.009.029-.004.021-.004.015-.007.029-.004.022-.004.023-.007.031-.002.017-.004.024-.004.025-.002.025-.004.031-.002.027-.002.021-.002.026-.002.027-.002.023-.002.035v.029l-.002.022v.087l.002.031v.033l.002.027.002.035.002.035.002.036.002.029.004.031.004.03.004.038.004.039.007.033.004.033.006.042.009.042.006.035.007.031.01.044.009.044.008.035.011.044.011.042.01.041.013.042.011.044.015.048.015.044.012.041.015.046.017.05.017.049.017.047.014.044.019.048.019.051.021.052.021.05.019.048.022.052.023.055.024.055.025.054.025.056.025.053.025.052.027.057.029.058.029.055.029.057.031.061.031.06.035.061.031.059.034.058.036.059.037.064.036.061.038.061.039.064.04.063.04.063.043.066.042.065.042.063.046.066.043.066.048.067.048.07.048.066.048.064.05.069.05.07.054.069.054.072.052.069.057.071.056.07.056.07.061.075.059.073.058.07.061.073.064.075.065.077.063.073.065.074.068.077.066.077.071.077.068.075.069.077.072.079.073.077.073.077.079.083.075.077.075.079.079.081.082.082.082.078.081.082.083.083.084.081.085.084.085.083.087.081.09.086.087.083.091.083.094.086.094.085.094.086.096.085.094.086.098.087.102.088.101.087.1.086.103.088.104.089.106.088.104.089.106.09.11.09.111.09.108.09.113.089.114.092.112.092.117.092.116.092.117.089.073.057.071.055.071.054.073.054.075.057.073.053.071.052.077.052.073.053.075.049.073.051.075.05.075.048.075.048.075.048.073.046.077.046.075.044.073.042.073.041.075.042.073.04.071.037.075.037.071.035.071.033.071.034.075.033.029.013.031.014.038.016.036.014.031.013.033.015.033.013.035.015.031.01.029.011.036.013.034.013.029.011.031.01.029.009.034.011.031.01.029.008.029.009.029.009.027.006.031.008.027.007.027.007.027.006.027.006.027.006.027.005.025.004.027.007.025.004.023.002.024.004.025.004.021.002.025.003.022.002.021.002.023.002.021.002h.021l.021.003h.135l.019-.003h.017l.019-.002.015-.002.017-.002h.017l.017-.005.017-.002.015-.002.017-.002.015-.002.015-.004.017-.004.013-.002.017-.005.015-.004.015-.005.013-.002.017-.006.017-.004.01-.004.017-.007.038-.013.152-.052.156-.044.158-.033.158-.027.16-.017.163-.008h.16l.16.011.161.016.161.027.156.033.156.044.152.052.15.061.148.069.142.075.137.083.134.092.129.098.123.104.117.11.11.116.104.125.098.127.089.134.083.14.075.142.069.147.058.15.052.152.044.156.033.158.027.158.017.16.008.16v.163l-.01.16-.017.161-.026.16-.034.156-.043.156-.053.152-.06.149-.069.146-.075.145-.083.137-.092.134-.098.129-.104.123-.11.116-.116.111-.125.104-.127.098-.133.09-.14.084-.142.074-.148.069-.15.058-.071.027-.094.031-.098.033-.094.031-.092.027-.096.027-.096.027-.096.024-.094.022-.096.021-.096.021-.094.019-.096.02-.094.017-.096.015-.094.012-.094.013-.094.013-.094.008-.096.009-.094.009-.092.006-.094.004-.091.004-.092.003-.091.002h-.184l-.092-.002-.089-.005-.089-.004-.09-.004-.09-.006-.087-.007-.089-.009-.088-.008-.085-.01-.09-.011-.085-.013-.085-.013-.085-.013-.086-.014-.083-.016-.083-.014-.085-.018-.081-.019-.081-.017-.084-.019-.083-.019-.079-.021-.079-.021-.081-.021-.08-.021-.079-.022-.079-.022-.077-.025-.077-.023-.077-.024-.077-.025-.077-.026-.075-.025-.073-.027-.077-.027-.075-.029-.073-.026-.071-.027-.073-.029-.077-.031-.069-.028-.069-.029-.075-.031-.075-.033-.133-.061-.138-.063-.138-.067-.135-.066-.132-.066-.131-.069-.131-.07-.125-.071-.127-.07-.127-.073-.121-.07-.121-.073-.121-.075-.117-.072-.119-.076-.115-.076-.115-.075-.11-.075-.112-.077-.108-.075-.106-.074-.108-.078-.104-.074-.101-.075-.1-.075-.103-.074-.096-.076-.096-.072-.138-.106-.131-.104-.131-.104-.131-.104-.129-.104-.127-.102-.13-.104-.125-.104-.125-.102-.125-.104-.123-.103-.121-.103-.121-.104-.119-.103-.121-.103-.117-.102-.114-.102-.115-.103-.117-.103-.112-.102-.112-.102-.11-.101-.108-.101-.11-.102-.111-.102-.104-.101-.106-.1-.106-.103-.104-.1-.103-.103-.102-.098-.1-.103-.1-.1-.098-.1-.098-.098-.098-.103-.096-.101-.094-.098-.094-.1-.094-.1-.092-.099-.092-.1-.09-.101-.087-.1-.088-.098-.087-.098-.087-.101-.085-.101-.082-.096-.083-.098-.083-.1-.082-.1-.08-.099-.077-.096-.082-.101-.077-.098-.075-.098-.077-.1-.073-.096-.073-.099-.073-.098-.071-.098-.073-.101-.07-.098-.067-.096-.067-.098-.068-.099-.063-.096-.069-.1-.065-.101-.06-.094-.063-.1-.063-.098-.058-.096-.061-.099-.059-.098-.056-.096-.058-.101-.057-.098-.056-.1-.053-.096-.052-.096-.05-.096-.052-.101-.052-.1-.048-.097-.048-.096-.048-.1-.048-.1-.044-.099-.044-.096-.043-.096-.042-.098-.042-.096-.042-.103-.038-.098-.04-.098-.038-.096-.035-.099-.038-.102-.036-.099-.033-.1-.031-.092-.031-.1-.033-.103-.029-.1-.027-.094-.027-.099-.027-.1-.027-.1-.025-.098-.023-.097-.023-.104-.021-.094-.021-.097-.021-.105-.019-.101-.014-.096-.017-.094-.017-.102-.015-.101-.012-.096-.01-.096-.013-.1-.01-.103-.008-.103-.006-.096-.006-.096-.006-.096-.004-.102-.004-.096-.002-.097v-.295l.002-.102.004-.096.004-.09.006-.102.006-.096.008-.097.011-.102.01-.096.011-.09.013-.096.013-.094.014-.096.017-.103.017-.088.017-.096.021-.094.019-.087.023-.103.022-.094.021-.085.023-.088.027-.094.029-.098.026-.088.027-.085.029-.092.031-.092.033-.09.031-.085.033-.083.033-.086.038-.09.037-.087.036-.083.042-.088.038-.084.04-.081.044-.085.039-.081.044-.079.046-.086.044-.079.042-.073.048-.083.05-.083.046-.071.048-.077.052-.081.05-.075.053-.074.052-.075.048-.069.054-.072.058-.077.055-.073.052-.066.057-.071.06-.075.054-.066.057-.064.063-.073.06-.066.056-.064.059-.063.063-.066.066-.069.059-.061.061-.061.064-.064.063-.061.064-.063.066-.06.064-.059.065-.059.065-.056.066-.061.071-.059.069-.059.066-.054.064-.052.071-.057.068-.053.069-.052.073-.054.069-.053.07-.052.071-.05.075-.053.071-.047.071-.049.071-.048.077-.048.073-.048.075-.046.073-.046.073-.044.075-.045.075-.044.075-.044.077-.044.077-.042.077-.043.075-.04.077-.042.079-.039.077-.039.077-.04.079-.038.079-.039.077-.035.081-.037.077-.038.079-.035.081-.036.081-.035.08-.033.079-.033.083-.033.081-.033.081-.033.082-.031.081-.031.082-.029.083-.031.086-.031.081-.027.081-.029.085-.029.083-.027.083-.026.083-.027.085-.027.083-.024.086-.025.083-.025.085-.024.085-.025.085-.022.087-.023.085-.022.085-.021.088-.023.085-.021.085-.021.087-.021.088-.019.085-.019.09-.02.087-.019.087-.019.086-.017.089-.017.088-.017.087-.017.089-.015.09-.017.088-.015.089-.015.09-.013.09-.015.089-.012.089-.014.088-.012.092-.011.089-.013.089-.01.09-.011.092-.009.089-.01.092-.009.089-.008.092-.009.09-.008.091-.007.092-.008.091-.007.092-.004.092-.006.092-.004.092-.005.092-.004.091-.005.091-.004.092-.002.092-.002.094-.002.092-.002h.377v.047z"/>
  <path fill="#88C0D0" d="M423.681 433.164s-11.223-22.064-9.102-40.991c6.64-59.252-10.802-70.877-3.983-107.02 2.369-12.549 6.844-26.844 14.467-37.232 16.75-22.834 48.948-34.694 76.952-29.332 11.215 2.146 21.34 7 31.361 12.325 34.863 18.521 42.107 57.608 37.576 90.555-2.006 14.585-14.545 37.314-12.711 51.939 3.824 30.487 2.756 46.989-6.764 66.654-8.113 16.762-39.686 29.389-74.203 25.8-5.881-.61-41.072-6.779-53.593-32.698z"/>
  <path opacity=".15" fill="#5E81AC" d="M548.293 245.263s11.574 28.23 4.52 51.098c-7.059 22.866-19.48 54.769-17.504 86.668 1.977 31.9-1.412 52.509-8.469 61.544-14.254 18.242-53.076 20.891-62.955 18.066-9.881-2.822 38.959 10.163 66.906-1.129 27.947-11.291 31.9-58.721 28.23-88.362s20.045-38.11 12.141-89.208c-12.705-29.925-12.988-28.232-22.869-38.677z"/>
  <path fill="#4C566A" d="M488.668 214.333l.352.002.352.004.352.005.348.008.178.005.174.004.176.004.174.006.178.007.176.004.174.009.176.006.174.006.176.009.176.009.174.008.176.008.174.009.176.011.176.01.174.011.174.011.174.01.176.013.176.013.174.013.176.013.172.012.176.013.176.015.172.015.176.015.174.015.174.017.174.015.174.017.176.017.174.019.174.018.172.018.176.018.172.019.176.021.172.02.174.018.176.021.172.021.174.021.172.023.174.021.174.022.174.022.172.023.174.022.172.025.174.024.174.023.172.027.172.024.172.025.174.026.172.027.172.027.172.027.174.029.17.027.174.028.172.029.172.029.17.031.174.031.17.029.174.031.17.033.172.031.172.033.273.052.273.055.271.057.273.054.273.059.27.058.271.059.271.061.27.061.271.063.27.063.268.064.27.064.268.064.27.066.268.069.266.069.268.068.266.07.266.071.264.071.268.072.262.075.266.075.264.074.262.075.264.077.262.079.264.079.26.08.262.078.262.084.26.081.26.083.26.084.26.083.258.085.258.086.26.088.258.087.256.088.258.089.258.09.256.09.256.092.256.092.254.092.256.094.256.094.254.094.254.096.252.096.254.096.252.096.252.098.252.098.254.101.252.101.252.1.25.1.25.103.252.102.25.103.25.102.248.104.25.104.248.104.25.106.248.106.246.106.248.106.246.107.248.109.248.107.246.108.246.108.246.11.246.11.244.111.246.111.244.111.246.112.244.112.244.112.244.114.244.115.244.114.242.114.244.115.242.114.242.117.244.116.242.117.24.116.242.116.242.119.242.119.24.119.242.118.242.118.479.24.48.239.48.242.479.241.477.244.48.246.477.245.475.246.477.248.477.248.475.25.473.25.475.25.475.252.211.112.211.112.211.114.209.115.211.114.209.117.207.116.209.115.207.118.205.116.207.119.203.117.205.121.203.118.205.121.201.118.203.121.201.123.201.121.199.123.201.123.197.122.197.123.199.125.195.125.197.125.195.125.195.127.193.125.193.128.193.129.193.127.193.129.191.129.189.129.191.13.188.129.189.132.188.131.188.131.188.134.186.131.188.134.184.133.186.134.184.136.182.135.184.134.182.136.184.137.18.136.18.138.18.137.178.138.18.138.178.14.176.138.178.14.176.142.176.14.174.142.174.14.174.142.172.142.174.144.172.142.17.144.17.145.17.144.17.146.168.144.17.146.166.146.166.146.168.146.166.148.164.146.164.147.164.147.164.15.162.148.16.147.164.151.16.15.16.15.16.15.158.151.158.152.158.151.156.152.156.152.156.152.156.154.154.154.154.154.154.153.154.156.152.154.15.156.15.156.152.156.15.158.15.156.148.159.146.156.148.158.148.158.145.16.148.158.145.16.145.158.146.163.143.16.143.161.145.162.139.16.145.162.139.163.141.162.139.165.141.162.139.165.139.164.137.165.135.162.139.167.135.167.137.164.135.167.133.164.133.169.135.167.131.167.131.168.133.169.129.167.133.168.129.172.129.168.127.171.129.169.127.169.125.171.129.173.125.171.123.17.125.174.125.173.123.171.123.173.121.173.121.173.123.173.121.175.119.175.119.174.119.174.117.176.119.175.115.177.117.176.117.175.117.179.113.176.115.177.115.177.111.178.113.179.111.177.113.18.113.179.107.177.111.18.109.182.109.179.107.179.107.182.109.182.105.179.107.182.105.181.107.182.104.182.104.183.105.182.104.183.102.184.102.182.104.184.102.184.1.185.1.184.102.184.098.185.098.184.098.186.098.186.098.186.096.186.098.188.094.186.094.186.098.186.092.188.094.188.092.188.094.185.092.19.092.188.09.188.09.188.092.189.088.189.09.188.086.188.088.189.09.191.086.189.088.189.082.189.088.189.086.194.082.189.084.189.084.192.08.189.084.193.082.191.08.191.082.192.08.191.08.194.08.191.078.191.078.193.078.194.078.193.076.194.074.191.078.195.074.194.076.193.074.196.072.193.074.193.074.196.07.196.074.193.07.195.07.196.072.196.07.195.068.196.07.197.066.194.07.197.068.198.066.196.066.195.066.198.066.198.064.197.064.198.066.196.064.197.063.2.064.196.063.199.063.198.061.198.063.199.061.2.059.198.059.199.061.198.059.198.059.2.059.202.059.199.057.198.055.202.057.2.057.198.057.201.053.2.055.2.055.202.055.202.051.2.053.2.053.201.051.2.053.202.051.204.049.198.051.204.049.202.051.202.049.202.047.202.049.2.047.203.047.203.047.203.047.203.043.201.047.205.045.201.043.203.045.203.043.205.045.201.041.205.041.201.043.205.041.206.041.202.041.201.039.205.041.206.037.202.041.204.037.204.039.206.037.204.035.204.039.202.035.207.037.205.035.203.033.203.035.207.035.206.033.204.035.206.033.204.031.205.033.203.031.209.031.204.031.204.031.208.029.202.027.207.029.205.029.207.029.204.029.208.027.204.027.204.027.209.027.204.023.206.027.208.025.204.025.204.025.209.023.206.021.204.025.208.023.207.023.206.02.204.023.206.021.208.02.207.043.41.039.414.037.413.037.412.035.415.033.412.031.412.031.413.027.412.029.415.025.412.025.415.023.412.02.413.021.414.02.412.016.413.018.412.014.413.012.412.014.412.01.413.008.412.008.413.006.412.006.412.002.413.002.41v.823l-.002.41-.004.412-.004.408-.006.413-.01.41-.008.411-.01.408-.014.41-.012.408-.014.41-.016.408-.016.408-.02.409-.02.408-.02.408-.021.406-.023.406-.025.406-.023.406-.027.406-.029.406-.029.406-.029.402-.033.403-.031.404-.035.404-.035.404-.035.402-.039.402-.039.402-.039.401-.043.4-.041.399-.043.4-.047.4-.045.397-.047.397-.047.4-.051.396-.049.396-.053.397-.053.395-.055.396-.023.186-.027.185-.029.188-.029.188-.029.188-.031.188-.031.19-.033.188-.033.189-.033.189-.035.191-.037.189-.039.192-.037.191-.037.191-.039.191-.043.194-.039.193-.043.194-.043.193-.043.193-.043.196-.047.196-.045.195-.047.195-.047.196-.049.198-.051.197-.047.198-.051.196-.051.201-.051.198-.053.198-.053.202-.053.2-.055.199-.055.202-.055.2-.057.202-.057.202-.057.202-.059.204-.057.204-.059.204-.059.202-.061.204-.061.204-.061.206-.063.205-.061.208-.125.41-.127.415-.129.414-.131.417-.133.417-.135.418-.135.419-.137.423-.139.421-.139.423-.141.425-.149.457-.145.428-.145.427-.145.425-.146.43-.146.429-.146.43-.15.431-.299.86-.299.865-.301.864-.305.869-.301.866-.303.868-.301.869-.148.436-.15.436-.148.434-.148.434-.146.433-.148.436-.146.434-.145.431-.145.434-.145.432-.141.432-.143.431-.139.431-.139.43-.137.43-.135.427-.137.427-.131.428-.131.427-.129.423-.129.425-.063.21-.063.211-.063.211-.061.21-.063.21-.061.211-.061.211-.059.207-.059.209-.059.209-.059.21-.057.206-.057.209-.057.205-.057.207-.055.208-.053.204-.055.207-.055.203-.051.207-.053.203-.051.203-.051.203-.051.205-.04.197-.047.2-.049.201-.047.203-.047.199-.045.2-.047.2-.043.197-.043.201-.043.199-.043.195-.039.199-.043.195-.039.195-.039.196-.037.196-.039.193-.037.195-.035.191-.035.192-.033.194-.035.191-.031.189-.031.191-.031.188-.031.189-.029.189-.027.188-.027.186-.027.186-.025.188-.023.184-.025.186-.023.184-.021.183-.02.181-.021.18-.02.184-.018.182-.018.177-.016.179-.016.176-.014.179-.014.175-.012.176-.012.172-.012.176-.008.172-.008.172-.01.17-.006.17-.004.17-.004.167-.004.167-.002.168v.167l-.002.163.002.164.002.164.002.158.004.163.006.161.006.158.008.158.008.158.01.156.012.152.01.156.012.151.016.154.014.149.016.15.016.15.02.154.09.708.088.712.084.707.084.704.084.696.078.691.08.689.076.684.072.677.074.675.07.671.07.665.066.66.066.656.031.326.031.328.031.322.031.325.027.321.029.32.029.323.029.318.027.319.027.316.027.316.027.314.027.314.023.313.025.313.025.313.023.311.021.308.023.311.023.306.021.307.021.309.021.305.02.304.02.302.02.303.018.299.02.303.02.298.016.298.018.301.016.295.016.296.014.294.016.296.014.292.016.293.012.292.012.29.014.291.01.29.012.287.01.288.01.287.008.285.01.285.008.283.008.286.006.283.008.281.006.281.004.281.006.279.004.279.002.278.004.277.004.277.002.275.002.277v1.094l-.002.271-.002.271-.006.273-.002.269-.004.269-.004.271-.006.268-.004.268-.006.267-.01.265-.006.267-.008.267-.008.265-.01.263-.01.264-.01.264-.012.262-.012.261-.012.261-.014.262-.012.261-.016.259-.014.258-.018.258-.014.257-.018.259-.016.258-.02.256-.018.254-.02.255-.02.257-.02.254-.021.254-.021.252-.021.252-.023.254-.023.25-.023.252-.023.25-.025.252-.027.25-.027.25-.027.248-.027.248-.029.248-.029.248-.029.25-.031.246-.031.246-.031.246-.031.245-.033.246-.033.245-.035.246-.035.244-.035.244-.035.243-.037.241-.039.244-.039.244-.037.241-.039.241-.043.242-.041.242-.039.239-.045.241-.043.24-.043.239-.045.239-.045.24-.047.239-.045.237-.047.24-.049.239-.049.237-.047.238-.051.236-.053.238-.049.237-.053.235-.053.237-.053.237-.055.236-.055.234-.057.236-.055.234-.057.236-.059.234-.059.236-.059.235-.061.233-.061.235-.061.233-.063.232-.061.234-.064.234-.063.234-.066.232-.064.234-.066.232-.064.231-.068.233-.068.233-.07.233-.068.231-.07.233-.07.232-.072.232-.072.232-.072.231-.076.233-.074.231-.074.233-.076.229-.076.234-.08.23-.076.231-.08.231-.078.233-.082.231-.082.23-.08.231-.084.231-.084.231-.082.233-.086.23-.086.232-.084.23-.088.231-.088.233-.09.229-.088.234-.092.232-.088.229-.092.233-.094.231-.092.233-.094.23-.094.232-.096.232-.096.233-.1.231-.096.233-.098.231-.1.232-.1.234-.1.23-.104.236-.102.232-.102.234-.102.232-.105.233-.105.233-.107.235-.105.233-.105.233-.109.235-.107.233-.111.237-.109.236-.111.232-.109.236-.115.236-.113.236-.113.237-.055.11-.055.11-.055.108-.055.112-.059.112-.055.106-.059.112-.059.111-.059.105-.057.113-.061.109-.061.106-.061.11-.063.111-.061.104-.063.11-.064.108-.063.106-.064.11-.064.105-.064.107-.066.107-.068.109-.066.105-.066.106-.066.106-.068.105-.072.109-.068.104-.068.106-.07.104-.07.105-.072.104-.072.106-.072.106-.074.104-.074.104-.074.104-.074.103-.074.104-.078.106-.074.103-.076.102-.076.102-.08.106-.078.103-.078.102-.078.103-.082.103-.078.102-.082.102-.08.103-.082.103-.082.1-.082.102-.084.101-.084.103-.084.1-.084.1-.086.1-.082.099-.088.101-.09.146-.088.1-.086.096-.086.1-.092.101-.088.099-.09.098-.09.1-.09.098-.092.098-.09.096-.09.099-.094.098-.092.097-.094.098-.094.096-.094.098-.094.096-.096.096-.098.096-.094.094-.098.096-.096.096-.098.097-.098.096-.1.094-.096.094-.098.094-.104.096-.1.094-.1.094-.1.092-.1.094-.105.096-.102.092-.102.091-.104.094-.104.094-.104.09-.105.094-.104.092-.104.092-.107.092-.105.09-.105.092-.109.092-.105.089-.109.092-.105.09-.111.089-.107.09-.111.09-.107.09-.111.09-.111.089-.111.088-.111.089-.111.088-.113.088-.111.09-.115.087-.111.087-.113.088-.117.088-.113.088-.115.085-.115.087-.117.088-.115.086-.119.085-.117.085-.117.086-.117.086-.119.085-.119.085-.121.086-.236.168-.242.168-.244.168-.244.167-.246.165-.248.164-.25.164-.25.163-.252.162-.254.163-.256.16-.256.16-.258.158-.262.158-.26.156-.262.158-.266.154-.266.154-.268.154-.27.154-.27.152-.271.15-.273.151-.273.147-.275.15-.277.148-.279.146-.281.146-.281.146-.281.144-.285.144-.285.142-.289.142-.287.142-.291.14-.289.14-.295.138-.293.137-.295.137-.297.135-.297.133-.299.134-.301.134-.301.131-.303.131-.307.129-.305.128-.305.129-.309.127-.311.125-.311.125-.311.123-.314.123-.313.123-.316.12-.316.121-.318.119-.318.117-.32.118-.322.114-.322.115-.324.114-.324.114-.326.11-.326.112-.33.109-.328.109-.332.109-.332.105-.332.106-.334.104-.336.104-.336.103-.336.103-.34.102-.34.1-.34.098-.342.099-.342.096-.344.096-.346.094-.346.094-.346.092-.348.092-.348.089-.35.09-.354.088-.352.088-.352.085-.354.085-.355.084-.355.081-.357.081-.355.082-.357.078-.361.078-.359.076-.361.078-.363.072-.361.075-.365.071-.365.07-.365.07-.367.069-.367.066-.369.067-.367.066-.371.063-.371.063-.371.063-.373.061-.375.061-.373.058-.375.056-.377.057-.375.055-.379.052-.377.052-.379.053-.379.05-.383.048-.381.048-.381.046-.383.043-.385.045-.383.041-.385.042-.385.04-.389.037-.387.037-.389.035-.387.035-.389.034-.391.031-.389.031-.393.028-.391.029-.393.027-.395.025-.393.023-.395.022-.395.022-.395.02-.398.021-.396.017-.396.017-.398.015-.398.012-.396.014-.4.012-.4.009-.4.009-.402.006-.4.006-.4.004-.404.002-.402.002h-.404l-.404-.002-.404-.004-.406-.004-.404-.004-.406-.009-.406-.009-.408-.01-.406-.01-.408-.014-.408-.014-.408-.018-.408-.016-.41-.02-.408-.021-.412-.021-.41-.023-.412-.025-.41-.024-.412-.026-.412-.029-.414-.031-.412-.031-.412-.033-.412-.036-.414-.035-.416-.04-.414-.037-.414-.042-.418-.042-.158-.019-.17-.019-.182-.021-.189-.024-.199-.024-.207-.027-.219-.031-.227-.033-.238-.033-.244-.038-.256-.04-.262-.043-.273-.044-.281-.048-.289-.05-.299-.054-.304-.055-.315-.059-.322-.063-.331-.063-.337-.066-.346-.07-.355-.074-.359-.074-.367-.079-.189-.042-.188-.039-.189-.044-.191-.042-.194-.043-.196-.047-.195-.045-.199-.047-.199-.045-.201-.049-.205-.049-.203-.049-.209-.052-.209-.05-.207-.053-.211-.054-.213-.052-.215-.057-.217-.055-.217-.056-.219-.059-.219-.058-.221-.059-.223-.061-.225-.061-.223-.063-.227-.063-.229-.064-.229-.064-.23-.064-.232-.066-.232-.069-.234-.067-.234-.07-.236-.068-.236-.073-.24-.071-.24-.074-.238-.073-.242-.075-.244-.076-.244-.078-.243-.078-.247-.08-.246-.079-.248-.081-.248-.084-.25-.082-.25-.084-.252-.086-.252-.087-.254-.087-.256-.09-.254-.088-.256-.092-.256-.092-.256-.094-.26-.094-.258-.096-.26-.096-.261-.098-.261-.098-.26-.101-.264-.101-.262-.102-.262-.104-.266-.104-.264-.104-.266-.105-.264-.109-.268-.107-.266-.111-.268-.109-.266-.113-.27-.114-.267-.114-.271-.117-.27-.117-.268-.118-.27-.118-.271-.121-.27-.123-.27-.123-.273-.125-.27-.125-.271-.127-.271-.129-.271-.13-.271-.131-.273-.132-.272-.135-.271-.134-.273-.138-.273-.137-.27-.139-.273-.139-.273-.143-.272-.143-.272-.145-.273-.146-.273-.146-.271-.148-.273-.15-.271-.151-.273-.152-.272-.153-.271-.154-.271-.156-.272-.158-.271-.159-.271-.16-.271-.163-.271-.164-.271-.164-.269-.167-.271-.167-.269-.169-.269-.173-.269-.171-.269-.175-.267-.175-.269-.175-.267-.18-.267-.179-.265-.182-.267-.183-.262-.184-.133-.094-.133-.094-.131-.094-.131-.094-.132-.094-.133-.094-.129-.096-.131-.094-.133-.098-.131-.097-.129-.096-.131-.098-.129-.099-.131-.096-.129-.1-.131-.098-.127-.098-.131-.101-.129-.101-.129-.1-.129-.1-.129-.102-.127-.101-.129-.103-.127-.102-.129-.104-.127-.103-.127-.102-.129-.104-.127-.104-.127-.106-.125-.104-.127-.105-.127-.107-.125-.104-.127-.106-.125-.107-.125-.107-.125-.107-.125-.109-.125-.107-.125-.111-.123-.107-.125-.111-.123-.109-.123-.111-.125-.111-.123-.111-.123-.112-.121-.112-.123-.113-.121-.111-.121-.115-.123-.115-.121-.113-.121-.115-.121-.117-.121-.113-.121-.117-.119-.117-.119-.116-.119-.118-.119-.117-.119-.119-.119-.119-.119-.12-.117-.118-.117-.119-.117-.123-.119-.121-.115-.121-.117-.123-.117-.123-.114-.12-.115-.125-.115-.123-.114-.125-.115-.125-.113-.123-.116-.127-.11-.125-.115-.127-.113-.127-.11-.128-.112-.129-.11-.127-.112-.129-.111-.129-.11-.129-.108-.129-.11-.132-.108-.132-.11-.131-.108-.131-.108-.134-.106-.132-.108-.133-.106-.135-.106-.134-.106-.134-.106-.137-.106-.134-.104-.138-.104-.135-.104-.138-.104-.138-.102-.138-.104-.138-.102-.139-.102-.141-.102-.139-.102-.141-.1-.141-.1-.141-.1-.143-.098-.141-.1-.141-.098-.145-.1-.146-.098-.144-.096-.145-.098-.143-.096-.146-.096-.146-.096-.145-.096-.148-.094-.146-.094-.147-.094-.149-.094-.148-.092-.148-.091-.149-.094-.152-.089-.149-.092-.15-.09-.152-.089-.152-.089-.151-.09-.154-.085-.152-.089-.153-.088-.156-.085-.152-.088-.156-.085-.158-.086-.154-.083-.156-.086-.158-.083-.158-.083-.159-.082-.156-.082-.16-.083-.161-.081-.162-.082-.16-.077-.158-.08-.16-.069-.143-.027-.052-.042-.085-.061-.121-.073-.148-.085-.179-.101-.208-.112-.238-.125-.264-.135-.292-.146-.317-.079-.17-.079-.178-.081-.181-.086-.188-.087-.196-.09-.201-.092-.207-.094-.215-.094-.219-.098-.225-.1-.231-.1-.235-.102-.244-.106-.248-.106-.254-.106-.26-.11-.265-.108-.269-.112-.277-.114-.279-.113-.285-.117-.292-.117-.296-.117-.302-.119-.307-.119-.308-.119-.317-.121-.318-.121-.325-.123-.329-.121-.333-.123-.338-.123-.344-.123-.346-.123-.352-.123-.355-.125-.357-.123-.365-.123-.366-.123-.368-.123-.375-.123-.378-.123-.384-.123-.385-.061-.193-.061-.194-.061-.198-.061-.195-.058-.195-.061-.198-.061-.2-.061-.2-.059-.202-.06-.201-.058-.201-.059-.203-.059-.203-.058-.203-.058-.209-.057-.204-.058-.206-.056-.209-.059-.208-.056-.208-.056-.209-.057-.212-.054-.21-.057-.211-.054-.215-.057-.213-.052-.212-.055-.214-.054-.217-.054-.215-.052-.217-.052-.219-.052-.217-.05-.217-.052-.219-.05-.219-.05-.221-.05-.221-.05-.221-.048-.219-.048-.225-.048-.222-.048-.223-.046-.226-.046-.223-.046-.223-.046-.229-.044-.226-.043-.226-.043-.227-.044-.227-.042-.228-.042-.228-.042-.227-.04-.231-.039-.229-.04-.227-.037-.231-.038-.231-.038-.229-.037-.229-.036-.235-.036-.229-.033-.231-.033-.234-.033-.232-.033-.232-.031-.234-.029-.232-.031-.236-.029-.232-.027-.233-.024-.25-.027-.234-.025-.236-.025-.234-.024-.234-.023-.24-.022-.233-.023-.237-.021-.237-.019-.235-.021-.24-.017-.237-.019-.235-.015-.237-.017-.239-.015-.238-.015-.236-.012-.24-.01-.24-.011-.238-.01-.236-.008-.239-.008-.239-.006-.24-.006-.239-.004-.239-.004-.238-.002-.239-.002-.239v-.479l.002-.237.002-.242.004-.241.006-.237.006-.24.007-.239.008-.239.011-.24.01-.239.012-.239.015-.24.015-.237.015-.239.017-.242.019-.236.019-.238.021-.24.022-.238.023-.24.025-.237.027-.235.038-.346.038-.342.037-.342.038-.34.035-.338.035-.339.036-.335.034-.336.033-.336.035-.333.031-.331.033-.332.031-.329.031-.328.031-.33.029-.324.031-.327.029-.325.029-.322.027-.324.027-.322.027-.318.027-.321.027-.319.025-.316.025-.316.024-.316.025-.314.022-.313.023-.313.022-.313.023-.313.022-.309.021-.309.021-.309.021-.306.019-.306.021-.305.019-.303.019-.304.017-.3.019-.303.017-.299.017-.299.017-.3.017-.296.015-.296.014-.294.015-.293.015-.294.014-.294.013-.291.013-.29.013-.288.012-.289.01-.289.011-.286.013-.285.008-.286.011-.283.01-.285.008-.281.009-.279.008-.281.009-.281.006-.277.006-.276.008-.279.006-.274.004-.275.006-.275.004-.271.005-.272.004-.273.004-.271.004-.271.002-.267.004-.269.004-.536.002-.531v-1.048l-.002-.521-.002-.519-.004-.513-.007-.512-.008-.509-.009-.505-.008-.502-.013-.498-.013-.495-.015-.494-.015-.489-.017-.488-.017-.482-.019-.481-.021-.479-.021-.475-.022-.473-.023-.469-.024-.467-.025-.465-.027-.461-.029-.458-.029-.458-.029-.454-.031-.45-.031-.447-.033-.463-.036-.444-.033-.439-.037-.439-.036-.436-.038-.436-.039-.429-.04-.429-.04-.428-.042-.425-.042-.421-.043-.419-.043-.419-.044-.414-.046-.414-.046-.411-.048-.408-.046-.408-.05-.404-.048-.402-.05-.401-.05-.398-.05-.398-.052-.396-.052-.392-.052-.392-.052-.39-.055-.39-.054-.386-.055-.383-.056-.383-.057-.382-.056-.379-.056-.377-.057-.378-.058-.375-.057-.372-.059-.371-.058-.371-.06-.368-.059-.367-.061-.366-.061-.365-.058-.362-.06-.362-.061-.36-.063-.358-.061-.358-.061-.356-.125-.71-.123-.707-.125-.701-.125-.698-.125-.694-.125-.691-.125-.686-.248-1.366-.248-1.354-.123-.675-.121-.671-.123-.669-.119-.669-.118-.666-.117-.667-.114-.664-.059-.331-.056-.334-.057-.331-.056-.331-.054-.332-.054-.331-.054-.331-.054-.333-.052-.331-.054-.332-.05-.331-.052-.333-.05-.331-.05-.331-.05-.334-.048-.331-.048-.333-.048-.332-.046-.333-.046-.333-.043-.334-.044-.335-.044-.335-.042-.334-.042-.335-.04-.336-.039-.335-.04-.338-.037-.338-.036-.337-.038-.338-.033-.339-.033-.338-.033-.342-.031-.34-.031-.342-.029-.341-.027-.342-.027-.344-.027-.346-.025-.344-.022-.347-.023-.348-.021-.346-.019-.35-.019-.348-.019-.351-.015-.353-.015-.35-.014-.354-.01-.354-.013-.354-.008-.356-.008-.356-.006-.359-.004-.359-.004-.359-.002-.363v-.362l.002-.362.002-.367.002-.183.002-.184.005-.184.002-.183.004-.186.004-.186.004-.184.004-.186.004-.186.006-.188.006-.186.006-.188.007-.188.008-.188.009-.186.006-.189.011-.188.008-.189.009-.189.01-.188.01-.191.011-.191.01-.188.012-.192.013-.191.013-.191.013-.194.012-.191.015-.191.015-.193.014-.194.015-.193.017-.196.015-.195.017-.194.017-.195.019-.196.019-.195.017-.198.019-.198.021-.197.019-.196.021-.2.021-.197.021-.2.023-.202.023-.198.021-.2.025-.204.023-.2.025-.201.025-.205.025-.199.024-.207.027-.203.027-.205.027-.206.027-.202.029-.206.029-.208.029-.207.029-.206.031-.208.031-.208.031-.209.031-.21.033-.209.033-.21.033-.21.033-.213.036-.211.036-.212.035-.213.035-.212.038-.215.037-.217.04-.213.037-.214.04-.217.04-.217.04-.217.041-.219.057-.3.059-.3.058-.302.06-.305.061-.305.061-.302.063-.304.063-.307.063-.305.064-.306.064-.306.067-.307.067-.309.068-.309.067-.308.071-.309.069-.311.071-.309.073-.31.073-.311.073-.311.075-.311.075-.313.077-.313.077-.311.077-.313.08-.313.079-.313.082-.313.081-.313.081-.314.083-.314.085-.313.083-.314.088-.314.085-.313.088-.315.089-.314.089-.314.09-.314.092-.313.094-.317.092-.314.096-.313.094-.316.096-.313.098-.314.098-.314.1-.314.1-.314.1-.314.102-.313.103-.314.104-.313.104-.315.106-.313.108-.313.106-.314.108-.311.11-.313.11-.313.112-.313.112-.31.115-.311.115-.313.114-.311.117-.311.118-.309.119-.311.121-.309.121-.308.121-.309.125-.306.123-.309.125-.307.127-.307.127-.304.129-.306.129-.305.131-.307.131-.302.131-.302.135-.303.133-.302.138-.3.138-.303.137-.297.14-.301.14-.298.142-.298.144-.296.144-.296.146-.296.146-.294.146-.293.15-.294.15-.292.15-.291.152-.29.154-.29.154-.289.154-.285.158-.288.158-.285.159-.285.161-.284.16-.283.162-.281.084-.141.081-.141.083-.139.083-.141.083-.139.081-.14.083-.138.085-.14.085-.14.084-.138.085-.138.086-.137.085-.138.085-.138.087-.138.086-.136.087-.135.088-.138.087-.136.087-.133.088-.136.089-.136.088-.135.09-.133.089-.134.089-.134.09-.133.092-.134.089-.133.091-.132.092-.133.092-.131.092-.13.092-.131.092-.132.096-.131.092-.129.094-.129.094-.13.094-.129.104-.14.103-.142.104-.14.104-.138.104-.138.106-.142.104-.138.104-.137.106-.138.106-.138.108-.138.106-.138.106-.135.106-.136.108-.138.11-.137.108-.136.108-.134.11-.135.108-.134.11-.136.11-.135.11-.134.11-.133.112-.134.11-.133.113-.132.113-.133.112-.134.114-.131.113-.134.115-.129.112-.131.114-.132.115-.131.116-.129.115-.13.117-.131.114-.129.117-.13.116-.129.119-.129.116-.127.117-.127.118-.13.119-.127.116-.127.119-.125.121-.129.118-.125.119-.128.121-.125.12-.127.121-.123.121-.125.123-.125.121-.125.123-.122.121-.125.123-.123.123-.123.125-.123.123-.123.125-.122.123-.121.125-.121.125-.123.125-.121.125-.121.127-.12.125-.121.127-.118.125-.121.127-.119.127-.119.129-.12.127-.116.127-.119.129-.119.127-.116.129-.117.131-.118.127-.115.131-.118.129-.114.131-.117.131-.117.129-.114.133-.114.131-.115.129-.114.133-.114.134-.115.133-.112.132-.112.133-.114.136-.112.131-.113.134-.11.135-.112.135-.112.134-.11.135-.11.136-.11.136-.113.137-.107.135-.111.136-.107.137-.111.135-.107.138-.109.138-.107.138-.108.137-.106.14-.108.137-.106.138-.105.142-.109.138-.105.14-.104.14-.106.14-.104.142-.106.14-.104.142-.104.142-.107.281-.203.283-.207.285-.204.286-.204.286-.202.287-.202.29-.199.287-.198.292-.198.292-.195.292-.194.292-.193.293-.194.296-.191.296-.189.295-.188.298-.188.298-.188.298-.184.302-.186.3-.181.3-.182.305-.181.303-.18.303-.177.307-.175.305-.176.305-.175.309-.171.309-.173.309-.169.311-.168.311-.167.311-.167.313-.164.313-.165.313-.162.314-.161.314-.16.314-.158.316-.156.316-.156.316-.154.32-.154.318-.151.32-.15.318-.149.321-.148.323-.146.32-.146.322-.145.324-.144.324-.142.323-.14.327-.14.324-.138.328-.136.324-.135.33-.133.326-.132.33-.132.328-.129.33-.129.33-.127.332-.125.332-.125.33-.123.334-.121.331-.121.333-.118.336-.118.334-.115.334-.114.336-.114.336-.113.335-.11.337-.108.338-.108.338-.108.338-.104.339-.104.337-.103.34-.102.34-.1.342-.099.34-.098.342-.096.342-.094.342-.092.342-.092.341-.092.344-.087.342-.088.344-.086.344-.085.344-.083.344-.082.346-.08.344-.078.347-.078.346-.076.346-.074.346-.073.346-.073.348-.068.346-.068.348-.069.346-.066.348-.064.35-.063.348-.063.348-.061.35-.059.348-.056.348-.057.35-.057.352-.052.348-.052.35-.051.35-.047.35-.049.352-.045.35-.044.35-.044.35-.042.35-.039.354-.038.35-.037.35-.035.352-.033.352-.033.352-.031.35-.029.352-.029.354-.025.35-.025.352-.024.352-.021.35-.021.354-.019.352-.019.35-.015.352-.015.354-.013.35-.013.352-.01.352-.009.352-.006.352-.005.352-.004.35-.002.354-.002.334.025zm-.678 5.959l-.324.002-.324.004-.326.004-.324.006-.328.009-.324.009-.324.01-.326.013-.326.015-.326.015-.326.017-.326.017-.326.019-.324.021-.326.021-.326.024-.326.023-.326.027-.326.027-.326.028-.324.029-.328.033-.324.031-.326.036-.326.035-.326.037-.324.037-.326.04-.326.042-.324.043-.326.045-.324.043-.324.048-.326.048-.324.051-.326.05-.324.052-.322.055-.326.054-.324.056-.322.057-.324.061-.324.061-.323.061-.323.063-.322.064-.323.066-.323.066-.32.067-.322.07-.322.071-.322.07-.32.075-.322.075-.32.075-.32.077-.318.079-.321.079-.319.083-.318.081-.318.084-.32.085-.317.088-.319.087-.316.09-.318.09-.316.092-.316.094-.314.094-.318.096-.314.098-.314.098-.316.098-.313.103-.314.103-.313.102-.313.104-.313.106-.313.107-.313.109-.311.107-.311.111-.311.112-.311.112-.308.114-.308.117-.309.116-.309.119-.307.119-.307.12-.306.123-.306.123-.305.125-.307.125-.304.127-.302.127-.303.13-.305.131-.299.131-.303.134-.3.136-.3.135-.301.136-.297.138-.299.139-.297.141-.297.141-.295.145-.297.144-.293.144-.294.146-.294.147-.293.147-.293.15-.289.152-.291.149-.29.154-.29.154-.287.156-.287.156-.287.158-.286.158-.286.161-.285.16-.283.162-.283.165-.281.164-.283.167-.279.166-.279.167-.279.171-.279.169-.277.173-.275.173-.286.172-.275.176-.275.177-.273.177-.27.178-.273.179-.271.181-.269.182-.269.184-.267.184-.269.186-.264.185-.265.188-.265.188-.263.19-.263.191-.265.191-.127.096-.131.096-.129.096-.129.098-.129.099-.129.096-.13.098-.129.099-.127.098-.129.1-.127.098-.127.101-.127.098-.127.101-.127.1-.127.1-.127.103-.125.1-.127.101-.125.102-.125.103-.125.1-.125.103-.125.102-.123.104-.125.103-.123.102-.123.104-.125.104-.123.104-.121.102-.125.106-.121.104-.121.104-.121.104-.123.106-.123.106-.119.106-.121.105-.121.106-.119.106-.121.106-.119.108-.121.108-.117.106-.118.107-.119.109-.119.107-.117.108-.119.11-.117.108-.117.108-.117.11-.117.11-.117.111-.116.109-.113.111-.117.109-.114.113-.115.11-.114.112-.114.112-.115.112-.112.113-.112.11-.112.114-.113.112-.113.114-.112.115-.11.112-.112.114-.11.115-.113.114-.108.114-.111.115-.11.116-.11.117-.108.114-.108.117-.11.116-.106.116-.108.117-.108.117-.108.118-.106.116-.106.119-.106.117-.106.118-.106.119-.106.118-.104.119-.106.121-.104.118-.104.121-.104.121-.104.118-.102.121-.104.121-.103.121-.102.12-.103.121-.102.123-.103.123-.102.122-.099.121-.1.123-.102.123-.1.123-.1.125-.099.123-.098.123-.098.123-.1.125-.098.127-.098.125-.096.123-.098.127-.096.125-.096.125-.096.127-.094.125-.096.125-.096.129-.094.127-.094.127-.094.127-.083.115-.085.114-.083.116-.084.117-.083.115-.081.116-.083.116-.083.119-.081.119-.081.116-.082.118-.083.121-.079.117-.081.121-.081.12-.079.119-.082.12-.082.121-.077.121-.081.123-.079.123-.079.123-.077.121-.079.122-.079.125-.077.121-.077.125-.079.125-.077.125-.077.123-.075.127-.077.125-.077.125-.075.127-.077.127-.075.128-.075.127-.075.127-.075.127-.075.127-.148.258-.147.259-.146.261-.146.26-.146.261-.144.263-.142.265-.142.265-.142.267-.14.267-.14.267-.137.271-.138.27-.136.271-.135.272-.134.273-.133.274-.131.273-.133.276-.13.275-.129.279-.129.279-.127.277-.127.279-.125.281-.125.283-.123.281-.125.283-.121.283-.121.285-.121.283-.119.285-.119.288-.116.287-.117.288-.114.289-.114.287-.115.29-.112.29-.11.291-.11.292-.11.292-.11.291-.106.292-.108.294-.106.293-.104.295-.104.293-.104.296-.104.296-.103.296-.1.294-.101.296-.1.298-.096.306-.096.298-.098.298-.096.298-.094.298-.094.296-.094.298-.092.3-.091.298-.089.298-.09.301-.09.297-.087.301-.088.298-.085.3-.085.298-.083.3-.086.301-.081.298-.083.3-.082.3-.079.298-.079.298-.08.3-.077.299-.077.297-.075.301-.075.298-.075.298-.075.298-.07.298-.073.296-.071.298-.071.298-.068.296-.069.296-.068.298-.067.296-.067.294-.064.296-.064.296-.064.293-.063.292-.063.296-.063.292-.061.294-.061.291-.058.292-.058.292-.059.289-.056.289-.056.29-.057.29-.054.287-.04.206-.037.204-.038.204-.037.202-.035.204-.038.204-.033.202-.035.2-.033.202-.036.2-.034.2-.031.2-.034.197-.031.198-.031.198-.031.197-.029.196-.029.195-.029.196-.029.195-.029.196-.027.193-.027.192-.025.193-.027.193-.025.191-.025.192-.025.191-.024.188-.023.191-.024.192-.021.188-.022.189-.021.186-.023.191-.021.188-.021.186-.019.186-.021.188-.019.186-.019.185-.017.186-.019.184-.017.184-.017.185-.017.184-.017.182-.015.184-.015.181-.015.182-.015.179-.015.182-.012.182-.012.181-.013.177-.013.18-.013.179-.01.178-.01.177-.011.182-.01.177-.008.175-.011.178-.008.175-.009.177-.008.175-.007.175-.008.176-.006.175-.006.173-.006.175-.007.173-.004.173-.004.173-.007.173-.002.173-.004.171-.004.171-.002.171-.002.173-.002.171-.002.169-.004.34v.679l.002.336.002.335.006.336.004.333.008.333.009.332.01.331.01.331.013.329.015.329.015.327.017.327.017.327.019.325.019.326.021.325.022.323.023.325.024.32.025.323.027.323.027.32.029.323.029.32.031.321.031.321.033.318.033.32.036.319.036.32.035.319.038.318.04.318.04.319.04.321.04.316.043.318.042.321.044.318.044.319.046.318.045.318.046.321.048.318.048.319.048.32.05.321.05.32.052.321.05.32.052.323.052.321.055.322.054.323.055.325.054.322.057.325.056.325.112.652.115.654.117.658.119.66.119.662.121.667.123.671.248 1.352.248 1.369.127.689.125.695.127.703.125.706.127.71.125.717.125.721.063.365.063.364.063.366.063.367.061.371.063.37.061.371.063.375.061.377.061.377.058.38.061.381.06.383.059.384.059.386.058.389.058.391.057.391.056.395.057.396.056.398.056.399.055.4.054.404.054.406.052.408.052.408.052.412.052.413.05.417.048.418.05.421.048.423.048.426.046.427.048.429.043.432.046.436.044.436.042.438.042.441.042.445.04.446.04.448.038.449.038.455.035.455.036.459.036.463.033.465.031.466.031.469.029.472.029.475.029.479.025.479.027.483.022.485.023.489.022.492.021.494.019.498.019.5.017.504.017.504.015.51.013.511.01.517.01.52.011.521.006.524.006.527.004.531.004.533.002.537v.543l-.002.543-.002.546-.004.55-.002.277-.004.279-.002.277-.004.279-.004.279-.007.281-.004.281-.006.283-.006.283-.006.283-.006.283-.006.287-.008.287-.008.288-.008.288-.008.289-.009.291-.01.29-.011.294-.011.291-.01.295-.013.295-.011.297-.012.295-.013.299-.012.297-.015.301-.015.3-.015.3-.015.303-.015.304-.017.304-.017.305-.017.307-.017.306-.017.308-.019.309-.019.309-.019.313-.019.311-.021.313-.021.314-.021.314-.021.314-.023.316-.022.319-.023.317-.022.318-.023.32-.024.321-.025.323-.025.322-.025.323-.027.327-.027.324-.027.328-.027.328-.029.33-.029.331-.029.331-.031.331-.029.333-.031.336-.031.335-.031.336-.033.338-.034.34-.033.339-.033.34-.035.341-.036.344-.036.344-.037.344-.036.349-.038.346-.037.349-.04.35-.037.346-.023.211-.022.205-.019.207-.019.206-.019.206-.017.209-.017.208-.015.206-.015.209-.012.21-.01.208-.011.211-.01.21-.008.21-.008.209-.006.21-.006.213-.004.212-.004.211-.002.211v.212l-.002.212.002.213v.213l.002.215.004.212.004.212.004.215.006.213.007.213.008.215.011.216.008.213.01.214.013.213.013.215.012.217.015.212.014.215.015.214.017.215.017.215.019.217.019.213.021.215.021.216.021.213.022.214.023.217.022.213.025.217.025.213.025.214.027.217.027.212.029.215.029.213.029.215.029.215.031.21.031.214.033.215.033.211.033.213.034.214.036.212.035.211.035.213.038.213.037.21.038.21.038.213.04.211.04.207.04.211.042.211.042.21.042.206.042.209.044.21.044.206.043.209.043.205.044.207.046.209.048.205.044.205.048.203.048.207.046.201.05.207.048.202.048.202.05.204.05.202.05.199.05.201.05.201.053.2.05.196.054.199.053.201.052.195.052.195.055.198.052.194.054.195.054.193.054.196.054.191.054.194.056.191.054.189.056.191.057.189.056.189.055.188.056.188.058.188.057.186.056.188.059.184.057.184.058.184.115.364.114.36.117.356.117.354.117.352.117.346.117.344.117.34.116.338.117.33.116.328.117.324.114.318.117.317.115.313.114.309.115.302.115.301.112.293.112.289.11.286.111.281.108.274.108.271.108.267.104.259.106.256.102.252.103.244.1.239.1.235.096.229.096.226.094.217.092.212.089.209.087.197.087.196.083.189.081.181.079.178.077.171.075.165.071.156.137.295.125.271.115.244.088.212.09.188.077.161.064.129.048.1.038.07.038.078.079.162.068.142.071.142.068.14.071.138.07.137.071.141.073.139.073.141.073.137.07.136.075.136.075.137.073.136.075.136.077.135.075.134.077.134.077.135.077.133.077.134.079.132.077.133.081.133.079.13.079.129.081.134.082.131.082.129.081.129.081.128.083.131.083.128.083.127.083.129.083.125.085.127.086.127.085.127.086.123.085.125.088.125.087.125.087.125.087.123.089.125.088.121.09.123.089.122.089.121.092.123.09.12.091.119.092.121.091.121.092.118.094.121.092.116.094.119.094.119.094.116.096.118.094.117.096.117.096.116.096.114.096.117.096.114.098.114.098.115.096.112.098.114.1.115.098.11.1.114.098.113.1.109.102.113.098.109.103.111.1.11.103.11.102.11.103.108.102.11.103.108.104.108.104.108.103.105.104.107.104.107.106.106.104.106.104.106.106.104.106.105.106.104.106.104.106.105.106.103.108.104.106.102.108.102.108.105.108.1.108.102.11.103.108.1.11.103.11.1.111.1.108.101.111.098.11.101.112.098.11.098.112.098.113.098.113.099.11.096.114.099.112.096.113.096.115.096.112.094.112.096.117.094.112.096.114.094.115.092.117.094.114.094.115.092.116.092.115.092.117.094.116.089.117.092.119.092.115.087.116.09.119.092.116.09.119.088.119.089.117.087.119.088.119.09.119.086.118.087.119.087.119.086.121.086.119.085.121.087.121.084.119.086.119.083.242.169.242.166.244.165.244.165.241.162.246.16.244.16.246.16.246.156.246.156.246.156.247.154.248.152.248.15.248.152.25.147.248.147.25.146.25.146.25.144.252.145.25.141.25.141.252.139.25.138.252.138.252.135.252.134.253.134.255.133.252.131.252.13.252.129.252.128.254.125.252.127.252.123.254.122.252.121.252.12.253.121.255.117.252.119.252.114.252.114.252.115.25.111.252.113.252.11.25.108.25.108.252.108.25.105.248.104.25.104.25.102.248.103.248.101.248.1.248.1.248.096.245.098.245.096.246.094.246.094.244.092.244.092.243.09.241.09.242.088.242.087.238.087.242.086.24.084.236.083.238.083.238.082.236.078.236.08.232.078.236.078.232.076.232.075.23.075.229.072.232.074.227.07.227.07.228.071.226.069.225.068.223.066.223.066.221.064.221.064.219.063.219.063.217.063.215.061.215.061.213.059.213.059.209.059.211.056.209.056.205.055.207.055.204.052.202.054.199.051.201.052.199.048.198.05.194.048.193.049.193.045.191.046.189.046.188.044.186.044.186.041.184.042.182.042.179.039.179.04.178.04.173.037.346.074.337.071.33.067.322.066.314.061.309.061.299.056.291.054.283.053.275.048.266.046.258.043.25.042.238.038.23.037.221.033.209.031.203.029.191.025.182.024.168.022.16.02.148.019.135.015.127.015.393.04.395.037.393.037.393.037.393.034.393.033.395.031.389.031.393.029.391.026.393.025.389.025.391.023.391.022.387.019.391.021.389.016.389.018.387.014.389.016.387.01.387.013.387.009.385.008.385.006.387.006.385.005.383.002.385.002h.383l.381-.002.383-.002.381-.005.383-.004.381-.006.379-.008.379-.009.379-.011.379-.012.377-.014.379-.014.377-.015.377-.017.375-.02.375-.018.375-.021.373-.021.375-.022.369-.024.373-.025.371-.027.371-.027.371-.029.369-.031.369-.031.367-.033.367-.033.367-.035.367-.035.363-.037.365-.04.365-.04.361-.041.363-.042.361-.044.361-.043.359-.047.359-.047.359-.049.357-.05.357-.05.357-.053.354-.051.355-.055.354-.055.354-.056.352-.059.354-.058.35-.059.35-.061.348-.063.348-.063.348-.064.346-.064.348-.064.344-.069.344-.067.34-.07.342-.068.342-.073.34-.071.338-.074.34-.073.336-.077.336-.074.334-.08.336-.076.334-.082.33-.079.332-.083.328-.082.33-.083.326-.085.328-.086.326-.088.322-.087.326-.089.322-.09.32-.09.322-.092.318-.092.318-.094.316-.096.316-.096.314-.096.316-.096.309-.101.313-.098.311-.101.309-.102.309-.102.307-.103.307-.104.305-.104.303-.106.303-.106.299-.106.301-.108.299-.107.297-.111.297-.11.293-.112.293-.112.293-.112.291-.115.289-.114.289-.116.287-.117.285-.117.283-.118.283-.118.281-.121.281-.121.279-.121.277-.123.275-.123.273-.123.273-.125.273-.127.271-.125.268-.127.27-.127.264-.129.266-.129.264-.129.264-.132.26-.132.258-.133.258-.131.258-.134.254-.136.254-.135.252-.136.25-.136.248-.137.248-.138.246-.138.244-.14.24-.14.242-.142.24-.14.236-.142.238-.144.232-.142.234-.144.23-.145.232-.146.227-.144.227-.146.225-.146.223-.147.225-.148.221-.147.217-.147.215-.15.215-.15.217-.152.105-.074.105-.075.104-.075.105-.075.104-.077.105-.076.104-.076.104-.076.102-.076.104-.076.102-.077.102-.077.1-.075.102-.077.102-.079.098-.077.098-.077.1-.077.1-.079.098-.077.1-.076.096-.08.096-.076.096-.08.098-.079.094-.077.094-.076.096-.082.094-.077.094-.079.092-.079.094-.079.092-.079.092-.079.092-.082.09-.078.092-.08.088-.078.09-.08.088-.081.09-.079.09-.081.086-.079.086-.08.088-.08.088-.084.086-.079.082-.079.086-.081.086-.083.084-.08.082-.081.084-.081.08-.081.082-.081.084-.082.08-.081.08-.081.08-.084.08-.08.08-.082.078-.081.078-.083.078-.082.078-.08.076-.084.078-.084.074-.08.074-.084.076-.081.076-.085.07-.08.074-.083.074-.085.074-.082.07-.081.07-.083.072-.086.072-.083.068-.081.07-.084.068-.083.07-.083.068-.084.066-.083.068-.085.066-.084.064-.083.066-.083.064-.084.068-.085.064-.083.063-.084.063-.083.063-.083.064-.086.063-.086.059-.08.063-.086.059-.084.061-.085.059-.085.061-.084.059-.085.057-.083.059-.084.057-.086.055-.085.057-.085.057-.084.055-.083.053-.085.055-.086.055-.086.055-.085.049-.083.053-.086.053-.085.051-.085.051-.084.049-.086.051-.085.049-.083.049-.088.049-.083.045-.083.051-.09.043-.084.047-.083.047-.087.045-.084.043-.083.045-.09.043-.083.043-.084.043-.087.043-.085.041-.088.109-.223.105-.223.107-.224.105-.223.105-.226.105-.221.102-.223.104-.223.104-.221.102-.223.1-.222.1-.221.098-.221.098-.222.1-.219.098-.221.096-.221.094-.217.096-.221.094-.219.092-.219.094-.219.092-.219.09-.219.088-.219.09-.217.09-.217.088-.219.088-.219.086-.214.084-.217.086-.219.084-.217.082-.216.084-.217.082-.215.08-.217.082-.219.08-.215.08-.217.076-.215.078-.214.076-.217.078-.217.074-.216.076-.215.074-.215.072-.217.074-.217.072-.215.07-.215.072-.216.07-.215.068-.217.068-.214.066-.215.07-.217.066-.217.064-.215.064-.215.066-.217.063-.216.064-.215.061-.214.063-.219.063-.217.061-.215.059-.217.061-.217.059-.215.057-.219.057-.217.057-.217.057-.216.057-.217.053-.219.055-.217.053-.219.053-.217.051-.219.053-.219.051-.216.051-.222.049-.219.049-.216.049-.224.047-.219.047-.219.045-.221.047-.221.045-.222.043-.221.045-.219.043-.223.043-.223.041-.221.041-.223.041-.223.041-.224.039-.224.037-.223.041-.225.035-.223.037-.225.037-.228.035-.226.033-.225.035-.227.035-.228.033-.228.033-.227.031-.227.031-.23.031-.227.031-.23.029-.23.029-.229.027-.231.027-.229.027-.23.027-.233.025-.231.025-.235.023-.231.025-.235.023-.233.023-.235.021-.235.023-.235.021-.237.021-.236.02-.238.02-.238.018-.237.02-.239.018-.24.018-.241.018-.241.016-.24.016-.242.014-.243.016-.243.014-.244.014-.246.012-.246.012-.243.012-.246.012-.25.01-.248.01-.247.01-.248.008-.252.008-.25.01-.25.006-.253.006-.254.006-.255.008-.254.004-.254.004-.254.004-.256.002-.259.002-.259.002-.258.002-.261v-.259l.002-.262-.002-.261v-.527l-.002-.264-.004-.266-.002-.268-.002-.264-.004-.268-.006-.268-.006-.27-.006-.271-.006-.271-.006-.273-.006-.271-.01-.272-.008-.274-.008-.275-.012-.277-.008-.275-.012-.279-.01-.278-.012-.279-.012-.281-.014-.279-.012-.283-.014-.283-.016-.284-.014-.285-.016-.287-.014-.287-.018-.288-.016-.29-.018-.289-.02-.289-.036-.281-.02-.292-.018-.296-.02-.294-.021-.297-.02-.297-.021-.297-.023-.301-.02-.298-.023-.302-.023-.305-.025-.302-.023-.305-.023-.304-.027-.308-.025-.307-.027-.311-.025-.309-.027-.313-.027-.311-.027-.313-.029-.314-.029-.316-.031-.316-.029-.316-.031-.319-.031-.319-.063-.643-.066-.648-.068-.652-.07-.658-.07-.66-.072-.669-.078-.671-.076-.678-.08-.681-.078-.688-.084-.691-.086-.696-.084-.701-.09-.715-.023-.189-.021-.194-.02-.198-.021-.197-.016-.196-.018-.198-.014-.195-.014-.2-.012-.2-.012-.197-.008-.2-.008-.2-.006-.202-.006-.198-.004-.203-.002-.201-.002-.201v-.205l.002-.201.002-.2.006-.204.004-.207.006-.201.008-.205.008-.205.012-.207.01-.204.014-.206.014-.207.014-.205.016-.207.016-.206.02-.208.02-.207.02-.21.021-.208.021-.207.021-.21.025-.21.025-.209.027-.21.027-.208.027-.213.029-.209.027-.212.031-.212.035-.211.031-.213.033-.21.035-.215.035-.212.037-.213.037-.215.037-.21.039-.215.041-.217.039-.212.043-.213.041-.217.043-.215.045-.217.043-.214.047-.215.045-.216.047-.215.047-.217.049-.219.049-.215.051-.217.049-.219.051-.217.053-.217.051-.219.055-.217.053-.219.053-.217.057-.221.057-.217.055-.219.059-.219.055-.221.059-.219.059-.219.059-.219.061-.221.061-.219.061-.221.061-.219.063-.219.063-.221.063-.221.063-.221.064-.221.064-.221.063-.219.066-.224.064-.221.066-.221.135-.442.133-.441.137-.441.139-.443.139-.441.141-.444.141-.444.145-.441.143-.443.145-.441.146-.443.146-.442.148-.441.148-.444.146-.441.15-.439.15-.441.15-.441.152-.439.152-.439.148-.44.305-.875.305-.875.303-.87.301-.867.301-.862.299-.858.297-.854.146-.425.145-.423.145-.423.143-.421.143-.421.141-.417.141-.417.139-.414.139-.414.135-.411.135-.408.133-.408.131-.406.129-.404.127-.399.125-.4.125-.398.121-.396.119-.394.059-.193.057-.196.059-.194.057-.193.057-.193.057-.194.057-.191.053-.191.055-.189.055-.192.051-.189.053-.188.053-.189.051-.188.051-.188.049-.186.049-.184.049-.185.047-.186.047-.182.045-.183.047-.184.045-.18.045-.179.041-.18.043-.179.043-.18.039-.177.039-.175.039-.175.041-.178.037-.173.035-.171.037-.171.035-.173.033-.171.033-.168.033-.169.031-.167.031-.166.031-.167.027-.165.029-.164.027-.163.027-.16.025-.162.025-.161.023-.158.023-.156.021-.158.051-.377.051-.379.051-.377.047-.38.047-.381.045-.379.047-.382.043-.381.043-.381.041-.382.041-.384.039-.383.037-.383.039-.384.035-.386.035-.385.033-.384.033-.386.031-.385.031-.388.029-.388.027-.385.027-.388.025-.386.023-.39.023-.388.021-.387.02-.391.021-.389.02-.388.016-.39.018-.39.014-.39.014-.392.012-.39.01-.392.012-.39.008-.392.006-.39.006-.392.008-.392.002-.392.002-.392.002-.392-.002-.392-.002-.393-.002-.391-.006-.393-.006-.394-.006-.392-.008-.392-.012-.392-.01-.392-.012-.394-.016-.392-.014-.392-.018-.395-.016-.391-.021-.393-.02-.394-.021-.392-.023-.392-.025-.392-.025-.392-.029-.392-.025-.392-.031-.392-.031-.395-.035-.389-.035-.393-.035-.391-.037-.391-.039-.394-.02-.193-.021-.194-.02-.195-.021-.195-.021-.196-.021-.194-.021-.193-.023-.197-.021-.194-.023-.194-.025-.195-.023-.195-.023-.194-.025-.193-.025-.196-.025-.193-.027-.196-.025-.193-.025-.194-.027-.193-.027-.195-.027-.192-.029-.193-.027-.196-.029-.193-.029-.193-.029-.194-.031-.191-.029-.196-.031-.193-.031-.193-.031-.194-.031-.193-.033-.192-.031-.191-.033-.193-.035-.193-.033-.192-.033-.191-.035-.196-.035-.191-.033-.191-.035-.191-.039-.192-.035-.193-.037-.192-.037-.191-.037-.189-.041-.195-.037-.191-.039-.19-.037-.191-.039-.191-.043-.192-.039-.191-.041-.189-.041-.189-.043-.193-.041-.189-.043-.19-.043-.191-.041-.189-.045-.189-.043-.192-.045-.188-.045-.191-.047-.189-.045-.189-.047-.189-.045-.189-.047-.188-.047-.191-.049-.188-.047-.188-.049-.19-.049-.188-.051-.189-.049-.189-.049-.188-.053-.188-.049-.188-.053-.188-.053-.188-.051-.189-.053-.188-.053-.186-.053-.188-.055-.186-.055-.188-.055-.186-.055-.188-.055-.188-.057-.185-.057-.186-.055-.186-.059-.186-.057-.188-.059-.184-.059-.186-.061-.186-.059-.184-.061-.185-.061-.186-.059-.184-.061-.186-.061-.183-.063-.184-.063-.186-.063-.182-.063-.184-.064-.183-.064-.184-.063-.183-.066-.182-.066-.184-.064-.182-.066-.181-.066-.184-.066-.181-.068-.182-.066-.182-.07-.184-.068-.179-.068-.181-.068-.18-.072-.182-.07-.179-.07-.181-.07-.18-.074-.18-.07-.179-.072-.179-.076-.18-.072-.18-.072-.179-.076-.177-.074-.18-.076-.179-.076-.177-.074-.176-.078-.179-.076-.177-.078-.178-.078-.177-.078-.175-.078-.178-.082-.177-.078-.175-.08-.176-.082-.174-.08-.176-.082-.175-.082-.175-.082-.176-.084-.174-.082-.174-.086-.175-.084-.175-.086-.171-.084-.173-.086-.173-.086-.173-.088-.173-.086-.173-.088-.174-.09-.17-.088-.171-.088-.171-.088-.171-.092-.171-.09-.171-.092-.171-.092-.171-.092-.169-.092-.17-.094-.17-.092-.168-.094-.169-.096-.169-.094-.168-.094-.167-.096-.169-.098-.169-.096-.167-.098-.166-.096-.167-.102-.167-.098-.166-.098-.167-.1-.165-.1-.166-.1-.164-.102-.165-.102-.165-.102-.166-.104-.163-.102-.164-.104-.165-.102-.162-.107-.162-.104-.163-.107-.165-.104-.162-.105-.16-.107-.162-.107-.161-.107-.16-.107-.163-.111-.16-.107-.16-.111-.16-.109-.16-.109-.159-.111-.158-.111-.16-.111-.158-.113-.159-.115-.158-.111-.158-.115-.156-.113-.158-.115-.158-.115-.154-.117-.156-.115-.156-.119-.156-.117-.156-.119-.154-.115-.154-.121-.156-.119-.154-.121-.153-.121-.154-.121-.152-.119-.154-.123-.151-.123-.152-.123-.152-.125-.152-.123-.152-.125-.149-.125-.152-.127-.149-.127-.152-.125-.148-.127-.149-.127-.147-.131-.15-.129-.15-.129-.147-.131-.148-.129-.147-.131-.148-.133-.147-.131-.144-.133-.148-.133-.146-.135-.146-.133-.146-.135-.144-.137-.146-.137-.145-.135-.146-.139-.144-.135-.142-.137-.144-.141-.143-.139-.143-.141-.143-.139-.142-.141-.142-.141-.142-.143-.14-.141-.142-.145-.14-.145-.14-.143-.14-.145-.139-.145-.139-.146-.139-.145-.138-.146-.138-.148-.138-.146-.136-.15-.137-.146-.138-.148-.136-.15-.135-.152-.136-.15-.136-.15-.133-.152-.134-.152-.133-.154-.134-.154-.133-.154-.134-.154-.131-.154-.134-.156-.131-.158-.131-.156-.132-.158-.129-.158-.13-.158-.131-.16-.129-.158-.129-.16-.127-.164-.13-.16-.127-.162-.129-.164-.125-.162-.128-.166-.127-.164-.125-.164-.125-.168-.127-.164-.123-.166-.125-.17-.125-.166-.122-.168-.123-.17-.121-.17-.123-.172-.123-.17-.12-.172-.121-.172-.121-.174-.121-.172-.121-.176-.118-.174-.121-.174-.116-.178-.119-.174-.119-.178-.116-.176-.118-.18-.117-.18-.116-.18-.115-.178-.116-.182-.115-.182-.114-.182-.114-.182-.113-.182-.114-.184-.112-.186-.112-.184-.112-.186-.111-.186-.111-.188-.111-.188-.11-.188-.11-.189-.11-.188-.108-.189-.108-.191-.11-.189-.105-.191-.109-.193-.105-.193-.106-.193-.108-.193-.104-.193-.106-.197-.104-.197-.106-.465-.246-.467-.245-.465-.246-.467-.244-.467-.244-.465-.243-.465-.241-.467-.24-.467-.237-.465-.237-.467-.238-.467-.234-.467-.234-.467-.23-.232-.115-.234-.116-.232-.114-.234-.115-.232-.112-.234-.114-.234-.113-.234-.111-.232-.113-.234-.11-.232-.112-.236-.11-.232-.11-.236-.11-.232-.108-.232-.108-.236-.11-.236-.108-.232-.106-.234-.106-.234-.108-.234-.105-.236-.104-.236-.104-.234-.105-.236-.104-.234-.103-.236-.104-.234-.103-.236-.101-.234-.102-.236-.1-.236-.101-.236-.1-.238-.101-.234-.098-.238-.098-.234-.096-.238-.096-.236-.096-.238-.096-.238-.097-.236-.094-.238-.091-.236-.094-.238-.092-.238-.092-.238-.092-.238-.09-.24-.09-.238-.087-.238-.09-.238-.085-.24-.088-.24-.086-.238-.085-.24-.085-.242-.084-.24-.083-.24-.081-.24-.084-.242-.079-.238-.081-.242-.079-.242-.079-.244-.077-.24-.077-.242-.077-.242-.075-.244-.074-.242-.073-.242-.073-.244-.072-.244-.073-.242-.071-.244-.068-.246-.068-.244-.069-.246-.066-.246-.067-.242-.066-.246-.064-.248-.064-.246-.063-.246-.063-.248-.061-.246-.063-.248-.059-.248-.058-.248-.059-.248-.059-.25-.054-.246-.057-.25-.054-.248-.055-.25-.052-.252-.05-.25-.052-.25-.049-.254-.05-.156-.029-.158-.028-.156-.029-.158-.029-.156-.029-.158-.027-.156-.027-.158-.027-.158-.026-.158-.027-.158-.026-.156-.025-.158-.025-.158-.025-.158-.024-.16-.024-.158-.023-.158-.023-.158-.024-.16-.021-.158-.023-.16-.023-.158-.021-.16-.021-.158-.021-.158-.021-.16-.021-.158-.021-.16-.018-.162-.02-.158-.019-.16-.019-.16-.017-.158-.019-.16-.018-.16-.016-.16-.018-.16-.017-.162-.017-.16-.015-.16-.015-.16-.014-.16-.016-.16-.014-.16-.013-.162-.015-.162-.013-.16-.013-.16-.012-.16-.011-.162-.013-.162-.011-.16-.011-.162-.01-.16-.011-.162-.008-.16-.011-.164-.008-.16-.009-.162-.009-.16-.008-.162-.006-.16-.009-.164-.007-.162-.006-.16-.006-.162-.006-.162-.005-.164-.004-.16-.007-.162-.004-.16-.002-.326-.006-.324-.007-.324-.004-.326-.002h-.648l-.056.019z"/>
  <path fill="#81A1C1" d="M481.354 453.65c-35.176-6.128-43.527-22.507-45.554-29.982-3.816-14.08-5.665-41.374-2.235-55.89 1.191-5.039 3.441-10.781 7.275-14.951 8.427-9.172 46.106-9.969 60.194-7.814 5.639.861 10.73 2.813 15.771 4.949 17.537 7.438 23.568 93.463-9.711 101.854-8.891 2.243-20.158 2.807-25.74 1.834z"/>
  <path fill="#ECEFF4" d="M464.811 317.335c1.113 3.531 1.783 10.275 4.072 13.088 1.107 1.364 3.357 1.277 4.822 1.221 8.42-.323 7.686-8.919 8.406-16.49"/>
  <path fill="#4C566A" d="M482.258 312.923l.123.012.123.02.121.025.117.031.117.037.115.043.111.053.109.057.105.063.104.068.1.075.094.079.09.083.084.09.08.094.074.098.07.103.063.105.057.109.053.111.043.115.041.117.031.118.027.121.018.12.014.123.004.123v.123l-.01.123-.016.173-.018.173-.014.173-.016.173-.014.173-.012.173-.029.353-.025.353-.025.355-.025.356-.025.358-.049.721-.025.36-.025.362-.027.365-.025.362-.016.181-.014.182-.016.184-.016.184-.018.181-.014.179-.02.184-.018.182-.018.182-.02.183-.02.18-.021.181-.021.182-.023.182-.021.179-.023.181-.025.18-.027.182-.027.177-.025.179-.029.18-.029.18-.033.177-.031.177-.033.178-.037.177-.037.177-.037.175-.039.175-.043.174-.041.175-.023.087-.02.086-.025.09-.023.085-.023.085-.023.088-.023.086-.027.087-.025.085-.025.086-.025.086-.025.083-.029.087-.027.084-.029.083-.029.088-.029.085-.029.084-.031.081-.031.085-.031.086-.033.083-.031.081-.033.086-.035.083-.033.081-.035.082-.035.083-.035.081-.039.083-.037.081-.039.082-.039.081-.041.081-.039.079-.041.083-.043.08-.041.076-.043.082-.045.079-.043.079-.047.077-.045.077-.049.079-.047.079-.049.077-.047.075-.051.076-.051.078-.051.072-.053.075-.051.075-.057.077-.057.075-.055.07-.053.07-.059.076-.061.072-.057.068-.061.075-.063.071-.059.066-.064.07-.063.069-.064.069-.066.068-.063.064-.068.068-.066.064-.068.064-.07.067-.068.063-.079.063-.074.063-.07.063-.072.061-.076.061-.074.058-.078.061-.076.059-.078.057-.078.058-.08.055-.078.054-.082.055-.084.049-.082.052-.084.051-.084.052-.086.05-.086.051-.086.047-.086.047-.088.045-.09.047-.09.043-.09.044-.092.044-.092.041-.092.04-.092.04-.096.039-.094.037-.096.038-.096.035-.096.035-.096.034-.1.033-.096.031-.1.031-.102.031-.1.029-.1.026-.102.027-.102.027-.105.024-.102.025-.097.025-.105.023-.105.022-.104.021-.109.019-.105.019-.109.019-.107.017-.109.015-.107.017-.111.013-.109.015-.113.013-.109.011-.113.01-.115.011-.111.009-.115.006-.115.008-.115.004-.113.007-.293.011-.158.004-.166.006-.17.002-.174.005h-.277l-.094-.003h-.097l-.098-.002-.098-.004-.098-.002-.1-.004-.103-.006-.103-.007-.104-.007-.104-.008-.105-.008-.105-.011-.109-.013-.107-.013-.108-.015-.108-.014-.11-.018-.112-.019-.113-.021-.111-.021-.115-.024-.113-.025-.115-.029-.115-.028-.117-.031-.109-.033-.064-.021-.059-.019-.061-.019-.059-.021-.059-.021-.059-.021-.063-.023-.059-.022-.058-.023-.06-.024-.061-.025-.057-.025-.063-.026-.059-.027-.059-.029-.063-.029-.059-.029-.059-.031-.06-.033-.061-.033-.058-.031-.059-.035-.061-.036-.059-.037-.061-.037-.059-.04-.057-.037-.058-.04-.058-.041-.057-.044-.061-.044-.057-.046-.055-.042-.058-.05-.054-.046-.055-.048-.057-.052-.054-.05-.054-.055-.055-.054-.053-.053-.049-.052-.053-.059-.05-.058-.05-.059-.049-.059-.074-.094-.065-.099-.074-.096-.068-.096-.07-.101-.066-.098-.067-.1-.064-.101-.065-.1-.063-.103-.06-.102-.061-.103-.058-.102-.059-.106-.057-.104-.057-.105-.054-.106-.052-.104-.055-.11-.053-.108-.049-.106-.051-.11-.047-.108-.049-.108-.05-.112-.046-.112-.045-.11-.047-.114-.045-.113-.043-.108-.043-.114-.044-.117-.042-.112-.041-.116-.042-.115-.04-.114-.039-.114-.039-.119-.038-.116-.038-.114-.039-.119-.037-.119-.035-.116-.035-.119-.036-.116-.036-.119-.035-.123-.035-.119-.033-.116-.033-.12-.033-.121-.033-.121-.064-.237-.063-.242-.063-.239-.061-.244-.059-.239-.059-.241-.059-.242-.057-.239-.053-.239-.055-.24-.055-.237-.052-.239-.052-.236-.051-.234-.1-.465-.1-.457-.096-.449-.096-.439-.047-.215-.045-.211-.049-.21-.045-.204-.047-.202-.045-.196-.047-.193-.045-.189-.046-.184-.046-.18-.046-.174-.046-.172-.021-.078-.021-.08-.025-.083-.021-.075-.022-.074-.022-.078-.021-.072-.025-.073-.033-.118-.027-.121-.018-.121-.016-.123-.006-.123v-.123l.006-.122.014-.123.02-.121.027-.121.033-.118.04-.117.046-.114.053-.11.058-.108.065-.104.07-.102.074-.098.082-.092.086-.09.091-.084.094-.076.101-.075.102-.067.105-.063.111-.054.112-.05.116-.044.117-.037.119-.029.121-.025.123-.017.122-.01.123-.003.122.003.123.01.121.017.121.023.121.031.117.035.115.044.113.05.11.054.106.063.102.067.1.072.097.079.089.084.086.087.082.094.076.097.068.102.064.104.061.108.053.11.046.114.04.117.029.091.031.099.026.094.029.1.028.1.027.096.027.099.029.104.055.199.052.202.052.206.053.209.052.21.05.213.051.214.049.217.049.217.049.221.049.221.05.224.097.448.098.451.098.457.098.458.051.228.049.229.051.228.052.229.052.226.051.227.054.226.052.225.055.223.055.224.055.219.055.217.059.216.059.215.027.106.029.104.029.104.031.106.028.102.029.103.031.101.028.102.031.1.031.103.031.096.031.098.031.099.031.094.031.094.034.096.033.094.031.092.034.089.033.09.031.088.033.085.035.09.033.085.033.081.033.082.033.081.035.079.033.077.035.079.034.075.036.075.035.072.033.066.035.071.035.069.033.066.035.063.035.063.036.063.034.059.035.058.033.057.033.054.035.053.033.05.033.05.031.044.033.046.033.043.031.04.031.04.004.006.003.002.005.004.002.002.006.007.006.006.002.003.002.004.006.004.003.002.007.006.006.005.004.004.008.007.007.006.005.002.006.006.006.005.008.004.012.009.008.004.006.006.008.004.012.007.01.006.012.007.01.006.01.004.012.006.016.007.01.007.016.006.012.006.012.006.018.009.017.007.013.004.019.008.017.007.015.006.019.007.021.006.016.006.02.007.019.006.015.004.048.015.044.013.043.011.047.01.049.013.049.011.053.008.051.011.055.009.057.008.057.009.058.008.058.007.061.006.061.006.063.007.063.004.064.004.064.005.064.004.067.002.067.002.066.002.066.002h.134l.068.002.07-.002h.066l.141-.002.139-.002.139-.004.139-.004.271-.011.084-.005.079-.004.077-.004.077-.004.077-.006.074-.007.076-.006.072-.009.07-.008.072-.009.07-.009.068-.01.068-.009.066-.01.068-.013.064-.011.064-.013.064-.012.063-.013.061-.013.061-.015.059-.015.059-.015.059-.015.057-.015.057-.017.057-.017.053-.017.053-.017.055-.017.051-.017.051-.019.053-.02.047-.019.051-.019.047-.019.047-.019.047-.021.047-.021.045-.021.047-.021.043-.021.045-.022.041-.021.041-.021.045-.023.039-.022.041-.023.041-.024.037-.023.039-.022.039-.025.037-.024.039-.025.037-.024.037-.027.035-.025.035-.027.035-.024.035-.027.035-.029.033-.026.035-.029.035-.029.031-.027.031-.029.033-.029.031-.029.033-.031.031-.031.031-.031.033-.033.029-.031.031-.033.029-.031.029-.033.031-.035.029-.035.029-.031.029-.038.029-.035.027-.036.027-.037.031-.039.027-.038.025-.035.027-.038.029-.041.029-.042.025-.039.027-.04.025-.043.027-.045.025-.039.025-.041.027-.047.025-.045.025-.047.023-.041.025-.046.027-.048.025-.048.021-.046.023-.048.025-.05.023-.049.023-.049.023-.053.023-.05.023-.052.02-.051.023-.054.023-.054.023-.055.02-.053.023-.058.021-.054.02-.055.021-.057.021-.059.02-.058.02-.057.021-.058.018-.059.021-.063.018-.059.02-.061.02-.063.018-.063.02-.063.018-.061.02-.063.018-.064.018-.064.018-.064.016-.063.018-.068.016-.064.033-.134.031-.136.031-.14.029-.138.029-.139.029-.143.027-.144.027-.147.027-.146.025-.149.021-.15.025-.149.023-.154.021-.154.021-.156.021-.156.021-.158.018-.16.02-.161.018-.16.018-.165.02-.164.016-.164.018-.167.014-.167.018-.171.014-.169.016-.168.014-.172.016-.172.012-.174.027-.348.025-.352.023-.353.025-.356.051-.719.023-.362.025-.362.025-.365.027-.366.029-.366.014-.186.016-.184.016-.184.018-.186.018-.183.016-.182.016-.123.02-.12.029-.121.033-.117.043-.116.047-.114.055-.111.061-.107.064-.104.07-.101.078-.096.08-.092.088-.087.092-.083.096-.078.1-.07.104-.066.107-.061.109-.055.115-.047.115-.042.119-.036.117-.029.123-.022.121-.017.123-.008.123-.002.137-.024zm-8.352-21.813c6.816.421 12.131 4.277 11.863 8.61-.264 4.331-6.014 7.509-12.828 7.089-6.814-.418-12.131-4.276-11.865-8.607.268-4.334 6.016-7.511 12.83-7.092z"/>
  <path fill="#4C566A" d="M472.793 302.216l.098.007.1.011.099.014.097.02.096.025.096.026.094.031.092.038.089.039.089.044.086.048.086.052.081.055.079.06.076.063.074.065.072.068.066.073.064.074.061.078.059.081.055.081.049.086.049.087.041.09.041.091.033.092.031.094.023.096.023.097.018.098.014.098.008.099.006.1.002.098-.004.184-.006.186-.006.184-.006.183-.006.186-.008.184-.01.183-.008.186-.01.182-.012.18-.01.183-.012.182-.014.179-.012.182-.014.182-.014.179-.016.177-.014.18-.014.179-.018.177-.018.178-.016.18-.033.352-.035.352-.037.351-.037.35-.039.349-.037.346-.039.346-.078.688-.076.684-.041.339-.037.342-.035.338-.035.337-.035.338-.033.338-.016.166-.016.169-.016.167-.014.168-.016.167-.014.167-.013.166-.013.172-.01.098-.016.098-.016.098-.023.096-.027.096-.031.094-.035.092-.039.092-.045.088-.045.088-.053.085-.054.081-.058.081-.061.077-.066.073-.067.073-.073.068-.072.064-.078.063-.08.059-.082.054-.086.052-.084.047-.09.043-.092.04-.092.035-.094.031-.094.027-.098.022-.096.02-.098.014-.099.011-.101.005-.098.002-.1-.005-.098-.006-.098-.013-.098-.017-.097-.021-.097-.023-.096-.029-.092-.033-.091-.037-.091-.042-.088-.046-.086-.048-.084-.052-.08-.057-.08-.061-.074-.064-.073-.066-.071-.068-.066-.073-.064-.075-.059-.079-.059-.081-.051-.084-.051-.085-.043-.087-.043-.092-.037-.09-.033-.094-.029-.094-.025-.096-.02-.098-.018-.099-.012-.098-.01-.099-.002-.098v-.1l.008-.098.012-.178.014-.181.016-.182.017-.179.015-.18.017-.177.017-.177.017-.18.034-.354.037-.353.035-.351.039-.35.037-.348.041-.346.076-.689.078-.686.039-.34.037-.34.037-.34.035-.337.036-.335.034-.338.033-.336.014-.166.016-.167.014-.167.015-.166.015-.165.012-.169.016-.166.01-.165.014-.164.012-.169.01-.165.01-.164.01-.167.008-.166.008-.163.01-.165.006-.166.006-.162.006-.167.004-.167.005-.164.005-.169.004-.099.008-.098.013-.098.017-.098.021-.096.024-.096.031-.094.033-.094.038-.092.043-.09.047-.088.049-.085.053-.083.059-.08.061-.079.064-.075.066-.072.07-.068.073-.067.077-.063.076-.061.084-.054.084-.055.085-.048.089-.044.09-.041.092-.035.094-.033.094-.027.096-.025.098-.021.099-.015.099-.011.098-.008.1-.003.099-.004z"/>
  <path fill="#4C566A" d="M491.77 305.602l.176.017.172.031.17.046.166.059.16.071.154.083.148.094.137.106.133.118.119.128.113.135.1.144.088.152.074.158.066.163.049.168.037.171.023.175.01.176-.004.175-.018.175-.031.173-.047.169-.057.166-.07.161-.084.154-.096.147-.105.14-.117.132-.127.129-.129.133-.131.134-.129.129-.131.132-.131.129-.131.129-.131.127-.131.127-.131.127-.133.125-.131.125-.131.123-.133.123-.131.123-.135.121-.131.119-.133.12-.133.119-.135.116-.135.119-.133.114-.135.114-.133.115-.135.114-.135.112-.135.113-.135.109-.137.111-.135.11-.133.106-.139.107-.135.109-.135.104-.139.106-.137.104-.137.104-.137.103-.137.102-.139.101-.137.1-.137.1-.141.099-.137.098-.139.096-.139.096-.137.097-.141.094-.139.094-.141.091-.139.092-.141.09-.139.089-.143.09-.139.088-.143.088-.141.087-.143.085-.139.084-.143.083-.145.083-.139.082-.143.081-.143.081-.145.079-.141.079-.145.077-.141.077-.145.075-.145.075-.143.074-.145.073-.145.073-.145.07-.145.071-.145.069-.145.068-.146.068-.143.066-.146.067-.146.064-.145.064-.146.063-.148.063-.145.063-.146.061-.148.061-.145.058-.148.059-.148.057-.148.057-.145.056-.15.054-.148.055-.146.052-.148.052-.15.051-.148.05-.146.05-.15.048-.15.048-.148.046-.15.046-.148.044-.15.044-.15.041-.152.044-.15.04-.148.039-.15.04-.152.037-.152.038-.15.037-.152.035-.15.033-.15.033-.152.034-.152.031-.152.031-.152.028-.154.029-.152.029-.15.027-.154.025-.152.027-.154.022-.152.022-.154.023-.154.022-.152.021-.154.02-.154.019-.154.019-.152.017-.154.017-.154.015-.156.015-.154.013-.154.013-.154.012-.156.011-.154.009-.156.008-.154.009-.156.009-.156.004-.154.006-.156.004-.156.002-.156.002-.156.003h-.312l-.156-.003-.156-.002-.156-.002-.156-.004-.156-.006-.158-.007-.156-.006-.156-.009-.158-.008-.156-.011-.156-.011-.158-.01-.158-.013-.156-.013-.158-.015-.156-.017-.158-.015-.158-.017-.156-.019-.158-.019-.158-.02-.159-.021-.158-.022-.159-.021-.156-.024-.158-.022-.158-.025-.158-.027-.158-.027-.158-.027-.16-.028-.158-.029-.158-.031-.158-.031-.158-.031-.161-.033-.158-.034-.159-.035-.158-.035-.158-.037-.16-.038-.158-.039-.16-.038-.158-.041-.158-.042-.16-.042-.158-.041-.161-.044-.159-.046-.16-.046-.16-.046-.158-.048-.16-.048-.16-.05-.158-.05-.16-.051-.159-.052-.161-.052-.16-.055-.16-.054-.158-.057-.16-.056-.16-.057-.16-.059-.161-.059-.158-.061-.161-.06-.16-.061-.16-.063-.16-.063-.16-.064-.16-.065-.161-.066-.161-.066-.16-.066-.16-.068-.16-.069-.16-.071-.16-.07-.16-.07-.164-.073-.16-.073-.16-.075-.16-.075-.16-.074-.16-.077-.163-.079-.161-.077-.16-.081-.16-.08-.162-.081-.16-.081-.16-.083-.163-.086-.161-.083-.16-.086-.162-.087-.16-.085-.162-.09-.161-.088-.163-.09-.16-.092-.158-.089-.148-.092-.141-.104-.133-.114-.123-.123-.115-.136-.12-.144-.092-.149-.078-.156-.066-.163-.054-.167-.04-.17-.027-.176-.012-.175v-.175l.014-.175.027-.173.043-.171.055-.167.067-.16.081-.156.092-.15.104-.142.115-.133.125-.123.133-.112.143-.104.15-.09.158-.079.162-.066.166-.055.172-.039.172-.027.176-.012h.175l.175.014.174.029.17.042.166.054.164.069.156.079.148.085.146.081.146.082.145.081.146.079.146.079.145.077.146.077.146.077.143.074.146.076.145.072.145.073.145.073.144.07.144.07.145.069.143.068.145.069.144.066.144.066.145.064.141.064.145.064.141.063.143.063.144.061.142.061.142.061.142.059.143.059.141.056.143.057.139.056.143.055.141.055.141.054.141.052.141.053.139.05.141.05.139.048.143.05.139.046.138.048.14.046.14.044.138.046.139.044.139.041.139.042.139.042.137.039.14.04.138.037.137.04.137.035.137.037.137.035.139.034.135.035.138.031.136.033.135.031.139.031.135.029.135.029.137.029.135.026.135.027.137.025.133.025.135.024.134.022.136.023.133.023.135.021.135.021.133.019.133.019.134.02.134.017.133.017.133.017.134.015.132.015.133.013.131.014.134.011.132.013.131.01.133.009.131.009.132.008.132.009.131.006.131.007.129.004.132.004.132.004.129.002.131.002.129.003h.261l.13-.003.131-.002.129-.002.129-.004.129-.004.129-.004.13-.007.127-.006.13-.007.129-.008.127-.009.129-.011.129-.01.127-.011.127-.013.129-.012.127-.013.128-.015.13-.015.127-.017.127-.015.127-.019.127-.017.127-.019.125-.02.127-.021.127-.021.127-.023.125-.021.127-.025.127-.022.125-.025.127-.025.125-.026.127-.027.125-.026.125-.029.125-.029.127-.029.125-.031.125-.031.125-.033.125-.033.125-.033.125-.036.125-.035.125-.036.123-.037.125-.037.125-.04.125-.039.125-.04.123-.041.125-.042.123-.042.125-.043.123-.045.125-.043.123-.046.125-.046.123-.048.123-.048.123-.048.125-.05.123-.051.125-.052.123-.052.121-.053.125-.054.121-.054.123-.055.123-.057.123-.056.123-.059.123-.059.121-.058.123-.061.123-.061.123-.061.121-.063.123-.063.123-.064.119-.064.123-.064.123-.067.121-.068.123-.067.121-.068.123-.068.123-.071.121-.07.121-.073.121-.072.121-.073.121-.075.121-.075.123-.075.121-.076.121-.078.121-.078.119-.08.121-.079.121-.081.121-.081.121-.083.121-.084.121-.083.119-.088.121-.085.121-.086.119-.087.121-.088.121-.092.121-.089.119-.09.119-.092.121-.094.121-.094.119-.094.119-.094.119-.096.121-.098.119-.096.119-.099.119-.1.121-.103.117-.1.119-.1.119-.104.121-.104.119-.102.117-.106.119-.106.119-.106.119-.108.119-.108.115-.108.119-.11.119-.11.119-.112.119-.112.117-.115.117-.114.119-.114.117-.117.117-.116.119-.116.117-.119.117-.121.115-.119.121-.125.127-.12.139-.11.143-.101.152-.089.158-.075.164-.063.168-.052.17-.036.176-.024.176-.009.155.003z"/>
  <path opacity=".15" fill="#5E81AC" d="M501.67 289.079s3.469 17.344 24.139 16.333c20.67-1.013 22.113-22.114 22.113-22.114l-46.252 5.781z"/>
  <path fill="#ECEFF4" stroke="#4C566A" stroke-width="5" stroke-linecap="round" stroke-linejoin="round" stroke-miterlimit="1.5" d="M519.891 249.825c13.828-1.969 26.65 7.658 28.621 21.484 1.969 13.828-7.658 26.652-21.484 28.621-13.828 1.969-26.652-7.658-28.621-21.485s7.657-26.651 21.484-28.62h0z"/>
  <path fill="#4C566A" d="M512.697 259.245c4.912-.697 9.467 2.721 10.166 7.632.701 4.912-2.721 9.467-7.631 10.167-4.912.699-9.467-2.721-10.166-7.632-.701-4.91 2.721-9.467 7.631-10.167z"/>
  <path fill="#ECEFF4" d="M511.951 262.991a2.526 2.526 0 012.854 2.145 2.521 2.521 0 01-2.141 2.854 2.526 2.526 0 01-.713-4.999z"/>
  <path opacity=".15" fill="#5E81AC" d="M413.264 280.263s3.471 17.344 24.14 16.333c20.668-1.013 22.114-22.116 22.114-22.116l-46.254 5.783z"/>
  <path fill="#ECEFF4" stroke="#4C566A" stroke-width="5" stroke-linecap="round" stroke-linejoin="round" stroke-miterlimit="1.5" d="M430.7 242.414c13.827-1.969 26.652 7.659 28.621 21.485 1.969 13.827-7.658 26.652-21.486 28.621-13.827 1.969-26.652-7.658-28.621-21.485s7.659-26.652 21.486-28.621z"/>
  <path fill="#4C566A" d="M423.507 251.835c4.911-.697 9.467 2.721 10.165 7.631.7 4.913-2.719 9.467-7.631 10.167-4.911.7-9.466-2.721-10.165-7.631-.7-4.913 2.719-9.467 7.631-10.167z"/>
  <path fill="#ECEFF4" d="M422.762 255.581a2.525 2.525 0 01.712 4.998 2.53 2.53 0 01-2.856-2.145 2.525 2.525 0 012.144-2.853z"/>
  <g opacity=".2" fill="#D8DEE9">
    <path d="M542.945 244.899c1.744 2.077 2.285 4.496 1.209 5.4s-3.367-.046-5.111-2.123-2.285-4.498-1.209-5.402c1.078-.904 3.367.049 5.111 2.125zm-94.683-11.496c2.596-.787 5.033-.333 5.441 1.014.408 1.346-1.369 3.076-3.963 3.864-2.596.785-5.033.331-5.441-1.015-.408-1.345 1.369-3.077 3.963-3.863z"/>
    <circle cx="420.385" cy="301.279" r="2.46"/>
    <circle cx="542.51" cy="305.748" r="2.46"/>
  </g>
  <path fill="#EBCB8B" stroke="#4C566A" stroke-width="6" stroke-linecap="round" stroke-linejoin="round" stroke-miterlimit="1.5" d="M525.846 340.835s19.848 9.904 21.27 23.209c1.424 13.302-9.494 17.154-14.326 8.154s-10.154-17.04-18.131-18.942c-7.975-1.9-1.278-18.792 11.187-12.421z"/>
  <path fill="#B48EAD" d="M587.104 237.78c-3.848 18.098-44.023 24.894-89.736 15.178-9.717-2.065-18.9-4.71-27.304-7.77-31.128-11.332-51.53-28.346-48.501-42.596 2.731-12.848 23.766-19.996 52.094-19.593l26.609 5.452 44.523 9.116c27.602 11.246 45.139 26.93 42.315 40.213z"/>
  <path opacity=".15" fill="#4C566A" d="M470.064 245.187c-31.129-11.33-51.531-28.344-48.502-42.594 2.731-12.848 23.766-19.996 52.094-19.593l26.609 5.452-27.605 24.752s-19.476 5.983-2.596 31.983z"/>
  <path fill="#B48EAD" d="M547.758 229.417c-2.018 9.496-23.096 13.061-47.08 7.963-11.162-2.373-20.984-6.202-28.094-10.576-8.168-5.027-12.756-10.77-11.678-15.848l13.204-18.026-.751-16.402 27.035-17.558 4.453-20.946 50.281-23.917-18.813 32.019 3.6 16.302-8.076 18.057 16.27 21.467-.351 27.465z"/>
  <path opacity=".15" fill="#4C566A" d="M555.129 114.107l-36.232 31.068-2.908 13.679-25.611 25.807 2.666 14.867-20.459 27.275c-8.168-5.027-12.756-10.77-11.678-15.848l13.204-18.026-.751-16.402 27.035-17.558 4.453-20.946 50.281-23.916z"/>
  <g fill="#4C566A">
    <path d="M552.9 253.91c-15.84 1.923-35.371.685-54.994-3.485-21.797-4.634-41.541-12.328-55.593-21.664-13.178-8.756-19.819-18.097-18.217-25.629 2.009-9.451 17.09-16.096 39.355-17.342a2.59 2.59 0 10-.289-5.171c-11.813.66-22.022 2.802-29.522 6.192-8.229 3.72-13.282 8.991-14.611 15.244-2.097 9.864 5.154 20.882 20.417 31.021 14.583 9.69 34.962 17.65 57.382 22.416 20.168 4.287 40.303 5.551 56.697 3.562a2.588 2.588 0 002.258-2.884 2.588 2.588 0 00-2.883-2.26zm17.692-45.682c-1.176-.813-2.789-.516-3.602.662s-.518 2.791.66 3.603c12.293 8.481 18.459 17.503 16.918 24.749-1.398 6.586-9.035 11.867-21.502 14.872a2.588 2.588 0 00-1.91 3.125 2.588 2.588 0 003.125 1.911c14.723-3.549 23.492-10.061 25.355-18.83 2.026-9.534-4.736-20.219-19.044-30.092z"/>
    <path d="M470.771 176.646l.709 15.49-4.283 5.85a2.59 2.59 0 104.18 3.06l4.822-6.586c.35-.477.525-1.059.498-1.649l-.682-14.919 17.453-11.335.002-.001 16.898-10.974a2.59 2.59 0 00-2.822-4.345l-3.316 2.153 2.887-13.577 41.504-19.742-14.535 24.742a2.585 2.585 0 00-.297 1.87l3.412 15.466-3.25 7.271-.004.004-7.518 16.813a2.59 2.59 0 004.73 2.115l1.26-2.817 13.088 17.271-.336 26.292c-1.813 6.801-20.113 10.814-43.955 5.747-23.541-5.003-38.543-15.896-37.852-22.861l2.637-3.602a2.59 2.59 0 10-4.18-3.06l-3.005 4.104a2.557 2.557 0 00-.444.992c-1.211 5.702 2.779 11.938 11.235 17.556 7.776 5.167 18.62 9.407 30.53 11.938 11.912 2.532 23.541 3.069 32.748 1.512 10.012-1.693 16.193-5.766 17.404-11.469.037-.166.055-.336.057-.505l.354-27.467a2.6 2.6 0 00-.525-1.599l-15.346-20.244 1.643-3.67 5.809-12.987a2.593 2.593 0 00.164-1.616l-3.377-15.308 18.295-31.141a2.589 2.589 0 00-.324-3.063 2.586 2.586 0 00-3.021-.59l-50.281 23.917a2.595 2.595 0 00-1.422 1.801l-4.229 19.896-26.137 16.973a2.6 2.6 0 00-1.178 2.294z"/>
  </g>
  <path fill="#EBCB8B" d="M486.736 148.933l2.584.023c3.406.033 4.4-4.639 1.273-5.996l-2.369-1.028a16.195 16.195 0 01-9.748-15.009l.023-2.583c.033-3.409-4.637-4.401-5.994-1.274l-1.029 2.369a16.192 16.192 0 01-15.01 9.747l-2.582-.024c-3.409-.031-4.402 4.639-1.275 5.996l2.369 1.028a16.195 16.195 0 019.748 15.009l-.023 2.584c-.033 3.408 4.639 4.402 5.996 1.273l1.027-2.369a16.193 16.193 0 0115.01-9.746zm89.575 44.769l2.156.02c2.848.027 3.676-3.873 1.064-5.006l-1.979-.858a13.525 13.525 0 01-8.139-12.532l.021-2.156c.025-2.848-3.873-3.676-5.008-1.064l-.857 1.979a13.527 13.527 0 01-12.533 8.139l-2.158-.02c-2.844-.027-3.674 3.873-1.063 5.006l1.979.857a13.527 13.527 0 018.139 12.533l-.02 2.156c-.027 2.847 3.873 3.676 5.006 1.064l.859-1.979a13.52 13.52 0 0112.533-8.139z"/>
  <path fill="#4C566A" d="M451.578 143.53l2.37 1.028a13.581 13.581 0 018.188 12.608l-.025 2.584a5.667 5.667 0 004.529 5.646 5.666 5.666 0 006.434-3.315l1.029-2.37a13.579 13.579 0 0112.609-8.188l2.582.023c2.752.027 5.074-1.835 5.646-4.527s-.791-5.338-3.314-6.435l-2.371-1.028a13.582 13.582 0 01-8.188-12.608l.023-2.583c.027-2.753-1.836-5.075-4.529-5.647a5.666 5.666 0 00-6.432 3.316l-1.029 2.37a13.584 13.584 0 01-12.609 8.188l-2.582-.023c-2.753-.025-5.075 1.836-5.648 4.528a5.67 5.67 0 003.317 6.433zm2.283-5.782l2.582.024a18.751 18.751 0 0017.41-11.307l1.029-2.369c.057-.131.174-.403.604-.312.43.091.426.388.426.53l-.025 2.582a18.754 18.754 0 0011.307 17.41l2.369 1.029c.131.057.402.174.311.604-.09.429-.389.426-.529.425l-2.582-.024a18.757 18.757 0 00-17.412 11.307l-1.027 2.369c-.057.131-.174.402-.604.312s-.426-.388-.425-.53l.024-2.582a18.753 18.753 0 00-11.307-17.41l-2.369-1.029c-.131-.057-.402-.174-.313-.604.092-.43.387-.426.531-.425zm92.924 51.835l1.979.859a10.906 10.906 0 016.578 10.131l-.02 2.156a5.154 5.154 0 004.121 5.138 5.152 5.152 0 005.852-3.017l.859-1.979a10.911 10.911 0 0110.133-6.58l2.156.02a5.154 5.154 0 005.137-4.119 5.157 5.157 0 00-3.018-5.854l-1.979-.858a10.915 10.915 0 01-6.58-10.132l.021-2.156a5.154 5.154 0 00-4.121-5.137 5.152 5.152 0 00-5.852 3.017l-.859 1.979a10.91 10.91 0 01-10.131 6.578l-2.158-.02a5.155 5.155 0 00-5.137 4.119c-.518 2.452.722 4.859 3.019 5.855zm2.055-4.792a.028.028 0 00.016-.001l2.158.021a16.083 16.083 0 0014.932-9.697l.857-1.979.01-.016c.01.002.021.004.031.008 0 .004 0 .01.002.016l-.021 2.157a16.082 16.082 0 009.697 14.933l1.979.858.014.007a.088.088 0 01-.006.033h-.016l-2.156-.021a16.082 16.082 0 00-14.934 9.697l-.859 1.979c-.002.006-.006.01-.006.015a.114.114 0 01-.033-.007.022.022 0 010-.016l.02-2.156a16.077 16.077 0 00-9.697-14.934l-1.979-.859-.016-.007a.135.135 0 01.007-.031z"/>
</svg>
